<svg width="70" height="71" viewBox="0 0 70 71" fill="none" xmlns="http://www.w3.org/2000/svg">
<path d="M15.7852 34.6992C15.7852 45.2945 24.4051 53.9145 35.0005 53.9145C45.5959 53.9145 54.2159 45.2945 54.2159 34.6992C54.2159 24.1039 45.5959 15.4839 35.0005 15.4839C24.4051 15.4839 15.7852 24.1037 15.7852 34.6992ZM51.4709 34.6992C51.4709 43.7809 44.0823 51.1695 35.0005 51.1695C25.9186 51.1695 18.5302 43.7809 18.5302 34.6992C18.5302 25.6175 25.9186 18.2289 35.0005 18.2289C44.0823 18.2289 51.4709 25.6175 51.4709 34.6992Z" fill="#C90000"/>
<path d="M15.7852 34.6992C15.7852 45.2945 24.4051 53.9145 35.0005 53.9145C45.5959 53.9145 54.2159 45.2945 54.2159 34.6992C54.2159 24.1039 45.5959 15.4839 35.0005 15.4839C24.4051 15.4839 15.7852 24.1037 15.7852 34.6992ZM51.4709 34.6992C51.4709 43.7809 44.0823 51.1695 35.0005 51.1695C25.9186 51.1695 18.5302 43.7809 18.5302 34.6992C18.5302 25.6175 25.9186 18.2289 35.0005 18.2289C44.0823 18.2289 51.4709 25.6175 51.4709 34.6992Z" fill="#BF5C00"/>
<path d="M28.9224 28.6207C28.9224 29.8838 29.31 31.0579 29.9719 32.031C27.377 32.4666 25.3931 34.7275 25.3931 37.4441V42.738C25.3931 43.4959 26.0075 44.1106 26.7656 44.1106H43.236C43.9939 44.1106 44.6085 43.4959 44.6085 42.738V37.4441C44.6085 34.7275 42.6245 32.4665 40.0296 32.0311C40.6916 31.0579 41.0792 29.8838 41.0792 28.6207C41.0792 25.2691 38.3526 22.5425 35.0007 22.5425C31.6492 22.5423 28.9224 25.2691 28.9224 28.6207ZM41.8635 37.4441V41.3655H28.1381V37.4441C28.1381 35.9305 29.3695 34.699 30.8832 34.699H39.1184C40.632 34.699 41.8635 35.9303 41.8635 37.4441ZM38.3342 28.6207C38.3342 30.4588 36.8388 31.954 35.0007 31.954C33.1628 31.954 31.6674 30.4586 31.6674 28.6207C31.6674 26.7827 33.1628 25.2875 35.0007 25.2875C36.8388 25.2874 38.3342 26.7827 38.3342 28.6207Z" fill="#C90000"/>
<path d="M28.9224 28.6207C28.9224 29.8838 29.31 31.0579 29.9719 32.031C27.377 32.4666 25.3931 34.7275 25.3931 37.4441V42.738C25.3931 43.4959 26.0075 44.1106 26.7656 44.1106H43.236C43.9939 44.1106 44.6085 43.4959 44.6085 42.738V37.4441C44.6085 34.7275 42.6245 32.4665 40.0296 32.0311C40.6916 31.0579 41.0792 29.8838 41.0792 28.6207C41.0792 25.2691 38.3526 22.5425 35.0007 22.5425C31.6492 22.5423 28.9224 25.2691 28.9224 28.6207ZM41.8635 37.4441V41.3655H28.1381V37.4441C28.1381 35.9305 29.3695 34.699 30.8832 34.699H39.1184C40.632 34.699 41.8635 35.9303 41.8635 37.4441ZM38.3342 28.6207C38.3342 30.4588 36.8388 31.954 35.0007 31.954C33.1628 31.954 31.6674 30.4586 31.6674 28.6207C31.6674 26.7827 33.1628 25.2875 35.0007 25.2875C36.8388 25.2874 38.3342 26.7827 38.3342 28.6207Z" fill="#BF5C00"/>
<path d="M30.1967 12.7384H39.8045C40.5624 12.7384 41.1771 12.1238 41.1771 11.3659V1.75826C41.1771 1.00022 40.5624 0.385742 39.8045 0.385742H30.1967C29.4387 0.385742 28.8242 1.00022 28.8242 1.75826V11.3659C28.8242 12.1238 29.4387 12.7384 30.1967 12.7384ZM31.5693 3.13079H38.432V9.9934H31.5693V3.13079Z" fill="#C90000"/>
<path d="M30.1967 12.7384H39.8045C40.5624 12.7384 41.1771 12.1238 41.1771 11.3659V1.75826C41.1771 1.00022 40.5624 0.385742 39.8045 0.385742H30.1967C29.4387 0.385742 28.8242 1.00022 28.8242 1.75826V11.3659C28.8242 12.1238 29.4387 12.7384 30.1967 12.7384ZM31.5693 3.13079H38.432V9.9934H31.5693V3.13079Z" fill="#BF5C00"/>
<path d="M13.6081 41.0038L8.11805 28.6511C7.89776 28.1555 7.40612 27.8359 6.86384 27.8359C6.32155 27.8359 5.82992 28.1553 5.60963 28.6511L0.119539 41.0038C-0.283296 41.9103 0.381416 42.9337 1.37375 42.9337H12.3539C13.3461 42.9338 14.0111 41.9107 13.6081 41.0038ZM3.48579 40.1888L6.86384 32.588L10.2419 40.1888H3.48579Z" fill="#C90000"/>
<path d="M13.6081 41.0038L8.11805 28.6511C7.89776 28.1555 7.40612 27.8359 6.86384 27.8359C6.32155 27.8359 5.82992 28.1553 5.60963 28.6511L0.119539 41.0038C-0.283296 41.9103 0.381416 42.9337 1.37375 42.9337H12.3539C13.3461 42.9338 14.0111 41.9107 13.6081 41.0038ZM3.48579 40.1888L6.86384 32.588L10.2419 40.1888H3.48579Z" fill="#BF5C00"/>
<path d="M63.8238 29.209C60.4182 29.209 57.6475 31.9797 57.6475 35.3853C57.6475 38.791 60.4182 41.5617 63.8238 41.5617C67.2296 41.5617 70.0002 38.7911 70.0002 35.3853C70.0002 31.9796 67.2294 29.209 63.8238 29.209ZM63.8238 38.8166C61.9317 38.8166 60.3925 37.2774 60.3925 35.3853C60.3925 33.4933 61.9317 31.954 63.8238 31.954C65.7158 31.954 67.2551 33.4933 67.2551 35.3853C67.2551 37.2774 65.7158 38.8166 63.8238 38.8166Z" fill="#C90000"/>
<path d="M63.8238 29.209C60.4182 29.209 57.6475 31.9797 57.6475 35.3853C57.6475 38.791 60.4182 41.5617 63.8238 41.5617C67.2296 41.5617 70.0002 38.7911 70.0002 35.3853C70.0002 31.9796 67.2294 29.209 63.8238 29.209ZM63.8238 38.8166C61.9317 38.8166 60.3925 37.2774 60.3925 35.3853C60.3925 33.4933 61.9317 31.954 63.8238 31.954C65.7158 31.954 67.2551 33.4933 67.2551 35.3853C67.2551 37.2774 65.7158 38.8166 63.8238 38.8166Z" fill="#BF5C00"/>
<path d="M39.3618 57.3347C39.1166 56.91 38.6634 56.6484 38.1732 56.6484H31.8279C31.3375 56.6484 30.8844 56.91 30.6393 57.3347L27.4667 62.8299C27.2214 63.2545 27.2214 63.7777 27.4667 64.2024L30.6393 69.6976C30.8844 70.1222 31.3375 70.3838 31.8279 70.3838H38.1732C38.6634 70.3838 39.1166 70.1222 39.3618 69.6976L42.5345 64.2024C42.7796 63.7777 42.7796 63.2545 42.5345 62.8299L39.3618 57.3347ZM37.3807 67.6388H32.6201L30.2398 63.5161L32.6201 59.3935H37.3807L39.761 63.5161L37.3807 67.6388Z" fill="#C90000"/>
<path d="M39.3618 57.3347C39.1166 56.91 38.6634 56.6484 38.1732 56.6484H31.8279C31.3375 56.6484 30.8844 56.91 30.6393 57.3347L27.4667 62.8299C27.2214 63.2545 27.2214 63.7777 27.4667 64.2024L30.6393 69.6976C30.8844 70.1222 31.3375 70.3838 31.8279 70.3838H38.1732C38.6634 70.3838 39.1166 70.1222 39.3618 69.6976L42.5345 64.2024C42.7796 63.7777 42.7796 63.2545 42.5345 62.8299L39.3618 57.3347ZM37.3807 67.6388H32.6201L30.2398 63.5161L32.6201 59.3935H37.3807L39.761 63.5161L37.3807 67.6388Z" fill="#BF5C00"/>
<path d="M45.2945 7.24797H61.7648V21.7771L61.3628 21.3751C60.8267 20.8392 59.9579 20.8392 59.4216 21.3751C58.8855 21.911 58.8855 22.7801 59.4216 23.3162L62.1667 26.0613C62.6993 26.5908 63.5644 26.6015 64.1078 26.0613L66.8529 23.3162C67.3888 22.7803 67.3888 21.9112 66.8529 21.3751C66.3168 20.8392 65.448 20.8392 64.9117 21.3751L64.5097 21.7771V5.87545C64.5097 5.11741 63.8951 4.50293 63.1372 4.50293H45.2944C44.5365 4.50293 43.9219 5.11741 43.9219 5.87545C43.9219 6.6335 44.5365 7.24797 45.2945 7.24797Z" fill="#C90000"/>
<path d="M45.2945 7.24797H61.7648V21.7771L61.3628 21.3751C60.8267 20.8392 59.9579 20.8392 59.4216 21.3751C58.8855 21.911 58.8855 22.7801 59.4216 23.3162L62.1667 26.0613C62.6993 26.5908 63.5644 26.6015 64.1078 26.0613L66.8529 23.3162C67.3888 22.7803 67.3888 21.9112 66.8529 21.3751C66.3168 20.8392 65.448 20.8392 64.9117 21.3751L64.5097 21.7771V5.87545C64.5097 5.11741 63.8951 4.50293 63.1372 4.50293H45.2944C44.5365 4.50293 43.9219 5.11741 43.9219 5.87545C43.9219 6.6335 44.5365 7.24797 45.2945 7.24797Z" fill="#BF5C00"/>
<path d="M63.1371 44.3062C62.3792 44.3062 61.7646 44.9208 61.7646 45.6787V63.5215H49.9805L50.3825 63.1194C50.9185 62.5835 50.9185 61.7144 50.3825 61.1783C49.8464 60.6425 48.9776 60.6425 48.4414 61.1783L45.6963 63.9233C45.1682 64.4513 45.1554 65.3236 45.6963 65.8645L48.4414 68.6095C48.9775 69.1455 49.8463 69.1454 50.3825 68.6095C50.9185 68.0736 50.9185 67.2045 50.3825 66.6684L49.9805 66.2664H63.1371C63.895 66.2664 64.5096 65.6518 64.5096 64.8938V45.6785C64.5096 44.9206 63.895 44.3062 63.1371 44.3062Z" fill="#C90000"/>
<path d="M63.1371 44.3062C62.3792 44.3062 61.7646 44.9208 61.7646 45.6787V63.5215H49.9805L50.3825 63.1194C50.9185 62.5835 50.9185 61.7144 50.3825 61.1783C49.8464 60.6425 48.9776 60.6425 48.4414 61.1783L45.6963 63.9233C45.1682 64.4513 45.1554 65.3236 45.6963 65.8645L48.4414 68.6095C48.9775 69.1455 49.8463 69.1454 50.3825 68.6095C50.9185 68.0736 50.9185 67.2045 50.3825 66.6684L49.9805 66.2664H63.1371C63.895 66.2664 64.5096 65.6518 64.5096 64.8938V45.6785C64.5096 44.9206 63.895 44.3062 63.1371 44.3062Z" fill="#BF5C00"/>
<path d="M23.3341 63.5226H7.55011V50.366L7.95212 50.768C8.48823 51.304 9.35718 51.3039 9.89328 50.768C10.4293 50.2321 10.4293 49.363 9.89328 48.8269L7.14824 46.0818C6.61241 45.5439 5.7344 45.5526 5.20708 46.0818L2.46204 48.8269C1.92607 49.3628 1.92607 50.2319 2.46204 50.768C2.99801 51.3039 3.86709 51.3039 4.40319 50.768L4.80521 50.366V64.8951C4.80521 65.653 5.41968 66.2676 6.17773 66.2676H23.3343C24.0923 66.2676 24.7068 65.653 24.7068 64.8951C24.7068 64.1372 24.0922 63.5226 23.3341 63.5226Z" fill="#C90000"/>
<path d="M23.3341 63.5226H7.55011V50.366L7.95212 50.768C8.48823 51.304 9.35718 51.3039 9.89328 50.768C10.4293 50.2321 10.4293 49.363 9.89328 48.8269L7.14824 46.0818C6.61241 45.5439 5.7344 45.5526 5.20708 46.0818L2.46204 48.8269C1.92607 49.3628 1.92607 50.2319 2.46204 50.768C2.99801 51.3039 3.86709 51.3039 4.40319 50.768L4.80521 50.366V64.8951C4.80521 65.653 5.41968 66.2676 6.17773 66.2676H23.3343C24.0923 66.2676 24.7068 65.653 24.7068 64.8951C24.7068 64.1372 24.0922 63.5226 23.3341 63.5226Z" fill="#BF5C00"/>
<path d="M6.86373 25.0915C7.62178 25.0915 8.23626 24.477 8.23626 23.719V7.24874H18.6478L18.2458 7.65075C17.7098 8.18672 17.7098 9.0558 18.2458 9.59191C18.7819 10.1279 19.6508 10.1277 20.1869 9.59191L22.932 6.84687C23.4695 6.30829 23.4636 5.43825 22.932 4.90571L20.1869 2.16066C19.651 1.62483 18.7819 1.62483 18.2458 2.16066C17.7098 2.69663 17.7098 3.56571 18.2458 4.10182L18.6478 4.50383H6.86373C6.10569 4.50383 5.49121 5.11831 5.49121 5.87636V23.7191C5.49121 24.4769 6.10569 25.0915 6.86373 25.0915Z" fill="#C90000"/>
<path d="M6.86373 25.0915C7.62178 25.0915 8.23626 24.477 8.23626 23.719V7.24874H18.6478L18.2458 7.65075C17.7098 8.18672 17.7098 9.0558 18.2458 9.59191C18.7819 10.1279 19.6508 10.1277 20.1869 9.59191L22.932 6.84687C23.4695 6.30829 23.4636 5.43825 22.932 4.90571L20.1869 2.16066C19.651 1.62483 18.7819 1.62483 18.2458 2.16066C17.7098 2.69663 17.7098 3.56571 18.2458 4.10182L18.6478 4.50383H6.86373C6.10569 4.50383 5.49121 5.11831 5.49121 5.87636V23.7191C5.49121 24.4769 6.10569 25.0915 6.86373 25.0915Z" fill="#BF5C00"/>
</svg>
