<svg width="79" height="71" viewBox="0 0 79 71" fill="none" xmlns="http://www.w3.org/2000/svg">
<g clip-path="url(#clip0_177_1361)">
<path d="M34.9469 3.69678C30.0897 3.69678 26.1523 7.63427 26.1523 12.4915V16.0475C26.7401 15.5027 27.5764 15.2066 28.3926 15.3157V14.8775C28.3926 14.5291 28.6901 14.2539 29.0349 14.28C32.4352 14.5243 35.8956 13.4438 38.5121 11.7346C38.7563 11.575 39.0798 11.6147 39.2783 11.828C41.5151 14.2324 41.5017 14.1393 41.5017 14.4532V15.3137C42.3964 15.1796 43.1902 15.4561 43.7416 15.9688V12.4915C43.7416 7.63413 39.8044 3.69678 34.9469 3.69678Z" fill="#BF5C00"/>
<path d="M28.9177 12.4915C28.9177 8.10486 32.1293 4.46924 36.3295 3.80588C35.879 3.73465 35.4173 3.69678 34.9465 3.69678C30.0893 3.69678 26.1519 7.63427 26.1519 12.4915V16.0475C26.7396 15.5027 27.5759 15.2066 28.3921 15.3157V14.8775C28.3921 14.5693 28.625 14.3194 28.9174 14.2837V12.4915H28.9177Z" fill="#DC6A00"/>
<path d="M41.4898 14.9952V19.8317C41.4898 19.884 41.4871 19.9358 41.4858 19.9881C43.1974 20.2471 44.5378 19.0107 44.5378 17.4919C44.5378 15.97 43.1962 14.7394 41.4898 14.9952Z" fill="#F0A479"/>
<path d="M43.7454 15.6591C43.1915 15.1403 42.3916 14.86 41.4898 14.9952V19.8317C41.4898 19.884 41.4871 19.9358 41.4858 19.9881C42.3904 20.125 43.1913 19.844 43.7455 19.3243L43.7454 15.6591Z" fill="#FFE8B2"/>
<path d="M28.4122 19.8372V14.9903C26.9183 14.7909 25.3564 15.9373 25.3564 17.4915C25.3564 19.0122 26.6974 20.2541 28.4159 19.994C28.4147 19.9416 28.4122 19.8895 28.4122 19.8372Z" fill="#F0A479"/>
<path d="M28.4122 19.0852C28.0542 18.6472 27.8449 18.0913 27.8449 17.4915C27.8449 16.9119 28.0622 16.3891 28.4122 15.9714V14.9903C26.9183 14.7909 25.3564 15.9373 25.3564 17.4915C25.3564 19.0122 26.6974 20.2541 28.4159 19.994C28.4147 19.9416 28.4121 19.8895 28.4121 19.8372V19.0852H28.4122Z" fill="#FFE8B2"/>
<path d="M35.0403 25.9744C33.6194 25.9744 32.3709 25.5844 31.3496 24.932V28.5349L35.0246 33.0709L38.6995 28.5349V24.8345C37.6583 25.5527 36.3978 25.9744 35.0403 25.9744Z" fill="#FFC086"/>
<path d="M34.0841 25.9128C33.055 25.7794 32.1348 25.4337 31.3496 24.9321V28.5351L34.0841 31.9104V25.9128Z" fill="#FFE3A1"/>
<path d="M48.4212 31.9912L38.6996 28.2261L35.0247 32.7621L31.3497 28.2261L21.6382 31.9912C21.6382 31.9912 18.0425 33.4694 18.0425 37.5683C18.0425 41.2774 18.0425 50.6527 18.0425 53.649C18.0425 54.3106 18.579 54.8472 19.2407 54.8472C19.7449 54.8472 50.3068 54.8472 50.8188 54.8472C51.4805 54.8472 52.017 54.3107 52.017 53.649C52.017 50.6527 52.017 41.2774 52.017 37.5683C52.0169 33.4692 48.4212 31.9912 48.4212 31.9912Z" fill="#FFF2D4"/>
<path d="M20.7771 53.6492C20.7771 50.6529 20.7771 39.9103 20.7771 36.2012C20.7771 33.7708 22.0412 32.2618 23.0704 31.436L21.6383 31.9912C21.6383 31.9912 18.0425 33.4694 18.0425 37.5684C18.0425 41.2774 18.0425 50.6529 18.0425 53.6491C18.0425 54.3107 18.579 54.8473 19.2407 54.8473C19.3294 54.8473 20.3508 54.8473 21.9752 54.8473C21.3136 54.8476 20.7771 54.311 20.7771 53.6492Z" fill="#F5D48A"/>
<path d="M39.2782 11.5186C39.0797 11.3053 38.7563 11.2656 38.5121 11.4252C35.8957 13.1345 32.4352 14.2149 29.0349 13.9707C28.6901 13.9446 28.3926 14.2196 28.3926 14.5681V19.8221C28.3926 23.1989 31.0385 26.2831 35.0407 26.2831C38.6034 26.2831 41.5017 23.3847 41.5017 19.8221V14.1439C41.5017 13.83 41.5151 13.9231 39.2782 11.5186Z" fill="#FFF2D4"/>
<path d="M31.1315 19.8226V13.959C30.4353 14.0146 29.7338 14.0213 29.0349 13.971C28.6901 13.9449 28.3926 14.2201 28.3926 14.5685V19.8224C28.3926 23.1992 31.0384 26.2833 35.0406 26.2833C35.4773 26.2833 35.9039 26.2392 36.3168 26.1562C33.363 25.5624 31.1315 22.9482 31.1315 19.8226Z" fill="#FFC086"/>
<path d="M39.4621 35.0934L42.2101 29.5861L38.6998 28.2266L35.0249 32.7626L38.6079 35.3072C38.8979 35.5131 39.3031 35.4117 39.4621 35.0934Z" fill="#F5D48A"/>
<path d="M30.5928 35.0934L27.8447 29.5861L31.3551 28.2266L35.03 32.7626L31.447 35.3072C31.157 35.5131 30.7516 35.4117 30.5928 35.0934Z" fill="#F5D48A"/>
<path d="M38.7619 50.3985L36.4034 36.4409H35.0292H35.0248H33.6507L31.2921 50.3985C31.2674 50.5783 31.32 50.761 31.4326 50.8848L34.6888 54.4729C34.8702 54.6727 35.184 54.6727 35.3654 54.4729L38.6216 50.8848C38.734 50.761 38.7866 50.5783 38.7619 50.3985Z" fill="#FFC086"/>
<path d="M34.1716 50.8843C34.0591 50.7605 34.0064 50.5778 34.0312 50.398L36.3897 36.4404H35.0292H35.0248H33.6507L31.2921 50.398C31.2674 50.5778 31.32 50.7605 31.4326 50.8843L34.6888 54.4724C34.8702 54.6723 35.184 54.6723 35.3654 54.4724L36.3965 53.336L34.1716 50.8843Z" fill="#DC6A00"/>
<path d="M35.0293 32.7654V32.7622L35.027 32.7637L35.0248 32.7622V32.7654L32.4189 34.6161L33.6508 36.4699H35.0248H35.0293H36.4035L37.6353 34.6161L35.0293 32.7654Z" fill="#FFD269"/>
<path d="M36.3943 33.7348L35.0292 32.7654V32.7622L35.027 32.7637L35.0248 32.7622V32.7654L32.4189 34.6161L33.6508 36.47H35.0249H35.0293H36.3853L35.3279 34.8785C35.2307 34.7322 35.2673 34.5353 35.4105 34.4336L36.3943 33.7348Z" fill="#DC6A00"/>
<path d="M51.9337 16.0586C47.0765 16.0586 43.1392 19.9961 43.1392 24.8533V28.4093C43.7269 27.8645 44.5632 27.5684 45.3794 27.6775V27.2393C45.3794 26.8909 45.6769 26.6157 46.0217 26.6418C49.4219 26.8862 52.8824 25.8057 55.4989 24.0964C55.7431 23.9369 56.0666 23.9765 56.2651 24.1898C58.5019 26.5943 58.4885 26.5012 58.4885 26.8151V27.6756C59.3832 27.5414 60.177 27.8179 60.7284 28.3306V24.8533C60.7284 19.9961 56.791 16.0586 51.9337 16.0586Z" fill="#BF5C00"/>
<path d="M45.905 24.8533C45.905 20.4667 49.1166 16.8311 53.3168 16.1677C52.8663 16.0965 52.4046 16.0586 51.9338 16.0586C47.0767 16.0586 43.1392 19.9961 43.1392 24.8533V28.4093C43.7269 27.8645 44.5632 27.5684 45.3794 27.6775V27.2393C45.3794 26.9311 45.6123 26.6812 45.9047 26.6455V24.8534H45.905V24.8533Z" fill="#DC6A00"/>
<path d="M58.4771 27.3571V32.1935C58.4771 32.2458 58.4744 32.2977 58.4731 32.3499C60.1847 32.609 61.5251 31.3725 61.5251 29.8537C61.525 28.332 60.1835 27.1013 58.4771 27.3571Z" fill="#F0A479"/>
<path d="M60.7327 28.0214C60.1788 27.5026 59.3789 27.2223 58.4771 27.3575V32.194C58.4771 32.2463 58.4744 32.2981 58.4731 32.3504C59.3777 32.4874 60.1786 32.2063 60.7328 31.6866L60.7327 28.0214Z" fill="#FFE8B2"/>
<path d="M45.3991 32.1999V27.3531C43.9051 27.1537 42.3433 28.3 42.3433 29.8543C42.3433 31.375 43.6842 32.6169 45.4028 32.3568C45.4015 32.3044 45.3991 32.2523 45.3991 32.1999Z" fill="#F0A479"/>
<path d="M45.3991 31.4475C45.041 31.0095 44.8317 30.4536 44.8317 29.8538C44.8317 29.2742 45.0491 28.7514 45.3991 28.3337V27.3526C43.9051 27.1532 42.3433 28.2996 42.3433 29.8538C42.3433 31.3745 43.6842 32.6164 45.4028 32.3563C45.4015 32.3039 45.3989 32.2518 45.3989 32.1995V31.4475H45.3991Z" fill="#FFE8B2"/>
<path d="M52.0276 38.3366C50.6067 38.3366 49.3582 37.9465 48.3369 37.2941V40.8972L52.0119 45.4332L55.6868 40.8972V37.1968C54.6455 37.9148 53.3852 38.3366 52.0276 38.3366Z" fill="#FFC086"/>
<path d="M51.0714 38.2751C50.0423 38.1417 49.1221 37.7961 48.3369 37.2944V40.8975L51.0714 44.273V38.2751Z" fill="#FFE3A1"/>
<path d="M65.4085 44.3535L55.6869 40.5884L52.012 45.1244L48.337 40.5884L38.6255 44.3535C38.6255 44.3535 35.0298 45.8317 35.0298 49.9306C35.0298 53.6397 35.0298 63.015 35.0298 66.0113C35.0298 66.6729 35.5663 67.2095 36.228 67.2095C36.7322 67.2095 67.2941 67.2095 67.8061 67.2095C68.4678 67.2095 69.0043 66.673 69.0043 66.0113C69.0043 63.015 69.0043 53.6397 69.0043 49.9306C69.0042 45.8318 65.4085 44.3535 65.4085 44.3535Z" fill="#FFF2D4"/>
<path d="M37.7644 66.0115C37.7644 63.0152 37.7644 52.2726 37.7644 48.5635C37.7644 46.1331 39.0285 44.6241 40.0577 43.7983L38.6256 44.3536C38.6256 44.3536 35.0298 45.8318 35.0298 49.9307C35.0298 53.6397 35.0298 63.0152 35.0298 66.0114C35.0298 66.673 35.5663 67.2096 36.228 67.2096C36.3167 67.2096 37.3381 67.2096 38.9625 67.2096C38.3009 67.2096 37.7644 66.6731 37.7644 66.0115Z" fill="#FFC086"/>
<path d="M56.2655 23.8809C56.067 23.6677 55.7436 23.6279 55.4994 23.7876C52.883 25.4968 49.4225 26.5772 46.0222 26.333C45.6774 26.3069 45.3799 26.5819 45.3799 26.9304V32.1844C45.3799 35.5611 48.0258 38.6454 52.028 38.6454C55.5907 38.6454 58.489 35.747 58.489 32.1844V26.5062C58.489 26.1924 58.5025 26.2854 56.2655 23.8809Z" fill="#FFF2D4"/>
<path d="M48.1188 32.1849V26.3213C47.4226 26.3769 46.7211 26.3836 46.0222 26.3333C45.6774 26.3072 45.3799 26.5824 45.3799 26.9308V32.1847C45.3799 35.5614 48.0257 38.6456 52.028 38.6456C52.4646 38.6456 52.8912 38.6015 53.3041 38.5185C50.3503 37.9246 48.1188 35.3107 48.1188 32.1849Z" fill="#FFC086"/>
<path d="M56.4489 47.4552L59.197 41.9479L55.6866 40.5884L52.0117 45.1244L55.5947 47.669C55.8847 47.8751 56.29 47.7736 56.4489 47.4552Z" fill="#F5D48A"/>
<path d="M47.5796 47.4552L44.8315 41.9479L48.3419 40.5884L52.0168 45.1244L48.4338 47.669C48.1438 47.8751 47.7385 47.7736 47.5796 47.4552Z" fill="#F5D48A"/>
<path d="M55.7492 62.7603L53.3907 48.8027H52.0165H52.0121H50.638L48.2794 62.7603C48.2547 62.9401 48.3073 63.1228 48.4199 63.2466L51.6761 66.8347C51.8575 67.0346 52.1713 67.0346 52.3527 66.8347L55.6089 63.2466C55.7213 63.1226 55.7739 62.9401 55.7492 62.7603Z" fill="#FFC086"/>
<path d="M51.1589 63.2466C51.0464 63.1228 50.9937 62.9401 51.0185 62.7603L53.377 48.8027H52.0165H52.0121H50.638L48.2794 62.7603C48.2547 62.9401 48.3073 63.1228 48.4199 63.2466L51.6761 66.8347C51.8575 67.0346 52.1713 67.0346 52.3527 66.8347L53.3838 65.6984L51.1589 63.2466Z" fill="#DC6A00"/>
<path d="M52.0166 45.1277V45.1245L52.0143 45.126L52.0121 45.1245V45.1277L49.4062 46.9784L50.6379 48.8323H52.0121H52.0166H53.3908L54.6225 46.9784L52.0166 45.1277Z" fill="#FFD269"/>
<path d="M53.3816 46.0973L52.0165 45.1277V45.1245L52.0143 45.126L52.0121 45.1245V45.1277L49.4062 46.9784L50.6381 48.8323H52.0122H52.0165H53.3725L52.3151 47.2408C52.2179 47.0945 52.2545 46.8976 52.3977 46.7959L53.3816 46.0973Z" fill="#DC6A00"/>
<path d="M17.9596 16.0586C13.1024 16.0586 9.16504 19.9961 9.16504 24.8533V28.4093C9.75279 27.8645 10.5891 27.5684 11.4053 27.6775V27.2393C11.4053 26.8909 11.7028 26.6157 12.0476 26.6418C15.4479 26.8862 18.9083 25.8057 21.5248 24.0964C21.7691 23.9369 22.0925 23.9765 22.291 24.1898C24.5278 26.5943 24.5144 26.5012 24.5144 26.8151V27.6756C25.4091 27.5414 26.2029 27.8179 26.7543 28.3306V24.8533C26.7541 19.9961 22.8169 16.0586 17.9596 16.0586Z" fill="#BF5C00"/>
<path d="M11.9304 24.8533C11.9304 20.4667 15.142 16.8311 19.3421 16.1677C18.8917 16.0965 18.43 16.0586 17.9592 16.0586C13.102 16.0586 9.16455 19.9961 9.16455 24.8533V28.4093C9.7523 27.8645 10.5886 27.5684 11.4048 27.6775V27.2393C11.4048 26.9311 11.6377 26.6812 11.9301 26.6455L11.9304 24.8533Z" fill="#DC6A00"/>
<path d="M24.5025 27.3571V32.1935C24.5025 32.2458 24.4998 32.2977 24.4985 32.3499C26.2101 32.609 27.5505 31.3725 27.5505 29.8537C27.5505 28.332 26.2089 27.1013 24.5025 27.3571Z" fill="#F0A479"/>
<path d="M26.7581 28.0214C26.2042 27.5026 25.4043 27.2223 24.5025 27.3575V32.194C24.5025 32.2463 24.4998 32.2981 24.4985 32.3504C25.4031 32.4874 26.204 32.2063 26.7582 31.6866L26.7581 28.0214Z" fill="#FFE8B2"/>
<path d="M11.4244 32.1999V27.3531C9.93052 27.1537 8.36865 28.3 8.36865 29.8543C8.36865 31.375 9.70959 32.6169 11.4281 32.3568C11.427 32.3044 11.4244 32.2523 11.4244 32.1999Z" fill="#F0A479"/>
<path d="M11.4244 31.4475C11.0664 31.0095 10.8571 30.4536 10.8571 29.8538C10.8571 29.2742 11.0744 28.7514 11.4244 28.3337V27.3526C9.93052 27.1532 8.36865 28.2996 8.36865 29.8538C8.36865 31.3745 9.70959 32.6164 11.4281 32.3563C11.4269 32.3039 11.4243 32.2518 11.4243 32.1995L11.4244 31.4475Z" fill="#FFE8B2"/>
<path d="M18.053 38.3366C16.6321 38.3366 15.3836 37.9465 14.3623 37.2941V40.8972L18.0373 45.4332L21.7122 40.8972V37.1968C20.671 37.9148 19.4106 38.3366 18.053 38.3366Z" fill="#FFC086"/>
<path d="M17.0973 38.2751C16.0682 38.1417 15.148 37.7961 14.3628 37.2944V40.8975L17.0973 44.273V38.2751Z" fill="#FFE3A1"/>
<path d="M31.4339 44.3535L21.7122 40.5884L18.0374 45.1244L14.3624 40.5884L4.65087 44.3535C4.65087 44.3535 1.05518 45.8317 1.05518 49.9306C1.05518 53.6397 1.05518 63.015 1.05518 66.0113C1.05518 66.6729 1.59166 67.2095 2.25338 67.2095C2.75759 67.2095 33.3195 67.2095 33.8315 67.2095C34.4932 67.2095 35.0297 66.673 35.0297 66.0113C35.0297 63.015 35.0297 53.6397 35.0297 49.9306C35.0296 45.8318 31.4339 44.3535 31.4339 44.3535Z" fill="#FFF2D4"/>
<path d="M3.78982 66.0115C3.78982 63.0152 3.78982 52.2726 3.78982 48.5635C3.78982 46.1331 5.05392 44.6241 6.08313 43.7983L4.65101 44.3536C4.65101 44.3536 1.05518 45.8318 1.05518 49.9307C1.05518 53.6397 1.05518 63.0152 1.05518 66.0114C1.05518 66.673 1.59166 67.2096 2.25338 67.2096C2.34211 67.2096 3.36353 67.2096 4.98788 67.2096C4.32617 67.2096 3.78982 66.6731 3.78982 66.0115Z" fill="#FFC086"/>
<path d="M22.2909 23.8809C22.0924 23.6677 21.7689 23.6279 21.5248 23.7876C18.9084 25.4968 15.4479 26.5772 12.0476 26.333C11.7028 26.3069 11.4053 26.5819 11.4053 26.9304V32.1844C11.4053 35.5611 14.0512 38.6454 18.0533 38.6454C21.6161 38.6454 24.5144 35.747 24.5144 32.1844V26.5062C24.5143 26.1924 24.5278 26.2854 22.2909 23.8809Z" fill="#FFF2D4"/>
<path d="M14.1442 32.1849V26.3213C13.448 26.3769 12.7465 26.3836 12.0476 26.3333C11.7028 26.3072 11.4053 26.5824 11.4053 26.9308V32.1847C11.4053 35.5614 14.051 38.6456 18.0533 38.6456C18.49 38.6456 18.9166 38.6015 19.3295 38.5185C16.3757 37.9246 14.1442 35.3107 14.1442 32.1849Z" fill="#FFC086"/>
<path d="M22.4748 47.4552L25.2228 41.9479L21.7125 40.5884L18.0376 45.1244L21.6206 47.669C21.9106 47.8751 22.3159 47.7736 22.4748 47.4552Z" fill="#F5D48A"/>
<path d="M13.6055 47.4552L10.8574 41.9479L14.3678 40.5884L18.0427 45.1244L14.4597 47.669C14.1697 47.8751 13.7643 47.7736 13.6055 47.4552Z" fill="#F5D48A"/>
<path d="M21.7751 62.7603L19.4165 48.8027H18.0424H18.038H16.6639L14.3053 62.7603C14.2806 62.9401 14.3332 63.1228 14.4457 63.2466L17.702 66.8347C17.8834 67.0346 18.1972 67.0346 18.3786 66.8347L21.6348 63.2466C21.747 63.1226 21.7998 62.9401 21.7751 62.7603Z" fill="#FFC086"/>
<path d="M17.1843 63.2466C17.0717 63.1228 17.0191 62.9401 17.0439 62.7603L19.4024 48.8027H18.0419H18.0375H16.6634L14.3048 62.7603C14.2801 62.9401 14.3327 63.1228 14.4452 63.2466L17.7015 66.8347C17.8829 67.0346 18.1967 67.0346 18.3781 66.8347L19.4092 65.6984L17.1843 63.2466Z" fill="#DC6A00"/>
<path d="M18.0419 45.1277V45.1245L18.0397 45.126L18.0375 45.1245V45.1277L15.4316 46.9784L16.6633 48.8323H18.0375H18.0419H19.4162L20.6479 46.9784L18.0419 45.1277Z" fill="#FFD269"/>
<path d="M19.407 46.0971L18.0419 45.1277V45.1245L18.0397 45.126L18.0375 45.1245V45.1277L15.4316 46.9784L16.6635 48.8323H18.0376H18.042H19.398L18.3406 47.2408C18.2434 47.0945 18.28 46.8976 18.4232 46.7959L19.407 46.0971Z" fill="#DC6A00"/>
<path d="M69.038 55.3319C69.6044 55.3319 70.0633 54.8728 70.0633 54.3065V49.8626C70.0633 45.1308 66.0049 43.408 65.8322 43.3369C65.8256 43.3342 65.8192 43.3316 65.8126 43.3291L56.7459 39.8177V37.9501C58.1612 36.8114 59.1551 35.1705 59.4536 33.2997C60.1595 33.2111 60.8143 32.9286 61.3578 32.4611C62.1371 31.7909 62.5843 30.8157 62.5843 29.7858C62.5843 28.9637 62.299 28.177 61.788 27.5522V24.7853C61.788 19.3705 57.3827 14.9652 51.9681 14.9652C49.5371 14.9652 47.3113 15.855 45.5946 17.3236C45.5724 16.5379 45.2912 15.7893 44.801 15.1899V12.4231C44.801 7.00823 40.3957 2.60303 34.9811 2.60303C29.5662 2.60303 25.161 7.00837 25.161 12.4231V15.2621C24.6682 15.851 24.3924 16.5612 24.3681 17.3149C23.2728 16.3788 21.9617 15.674 20.5006 15.2893C19.9521 15.1449 19.3921 15.4721 19.2477 16.0198C19.1034 16.5675 19.4305 17.1283 19.9782 17.2726C23.3842 18.1695 25.7631 21.2589 25.7631 24.7852V26.3188C25.7188 26.3096 25.5767 26.2851 25.5712 26.2843C25.5572 25.9949 25.484 25.8181 25.3262 25.5911C25.0637 25.2139 24.5923 24.744 23.0761 23.1144C22.5358 22.534 21.6619 22.4275 20.9985 22.8612C18.4015 24.5576 15.2465 25.4222 12.3185 25.2503C11.3648 25.1944 10.7691 25.6134 10.5152 26.3002C10.4925 26.3039 10.2389 26.355 10.2248 26.3584V24.7852C10.2248 21.3851 12.4968 18.3263 15.7497 17.3465C16.292 17.1832 16.5992 16.6112 16.4359 16.0688C16.2725 15.5265 15.6997 15.2193 15.1582 15.3828C13.1798 15.9786 11.4015 17.2192 10.1513 18.8757C8.85748 20.5893 8.17375 22.6328 8.17375 24.7853V27.6244C7.65723 28.2416 7.37792 28.9916 7.37792 29.7858C7.37792 31.5413 8.67127 33.0722 10.514 33.3006C10.8158 35.1275 11.807 36.8796 13.3714 38.0708V39.8182L4.31474 43.3294C4.30831 43.3319 4.30189 43.3345 4.29546 43.3371C4.1221 43.408 0.0634766 45.1307 0.0634766 49.8625V65.9432C0.0634766 67.1694 1.06097 68.1668 2.2872 68.1668H33.8652C34.3065 68.1668 34.7171 68.0359 35.0635 67.8134C35.4097 68.0359 35.8204 68.1668 36.2619 68.1668H67.84C69.0661 68.1668 70.0636 67.1694 70.0636 65.9432V59.0918C70.0636 58.5255 69.6047 58.0664 69.0382 58.0664C68.4718 58.0664 68.0128 58.5255 68.0128 59.0918V65.9432C68.0128 66.0384 67.9355 66.1159 67.8402 66.1159H63.9438V51.1347C63.9438 50.5684 63.4849 50.1093 62.9184 50.1093C62.352 50.1093 61.893 50.5684 61.893 51.1347V66.116H54.364L56.4018 63.8742C56.7165 63.5279 56.8648 63.0361 56.7988 62.5586C56.7973 62.5483 56.7958 62.5382 56.794 62.528L54.5033 48.9934L54.9248 48.3589L55.0346 48.4368C55.4104 48.7038 55.8897 48.8012 56.3535 48.6854C56.8089 48.5715 57.1905 48.2651 57.4002 47.8451V47.8449L59.7311 43.1731L65.0556 45.2353C65.2658 45.3266 68.0122 46.5859 68.0122 49.8625V54.3064C68.0124 54.8728 68.4714 55.3319 69.038 55.3319ZM48.2986 46.4633L46.2857 42.4294L48.0454 41.7479L50.5626 44.8549C49.4621 45.6369 48.3556 46.4228 48.2986 46.4633ZM23.836 42.4294L21.8232 46.4633L21.2771 46.0755C21.2766 46.0751 21.276 46.0746 21.2755 46.0742L19.5557 44.8527L22.0723 41.7463L23.836 42.4294ZM14.3242 46.4633L12.3113 42.4294L14.071 41.7479L16.5882 44.8549L14.8716 46.0742C14.8706 46.0749 14.87 46.0755 14.869 46.0762L14.3242 46.4633ZM26.5521 29.6964C26.5981 30.3578 26.1916 30.956 25.5735 31.1805V28.3924C26.1472 28.6011 26.5156 29.1017 26.5521 29.6964ZM38.8032 12.4092C39.7278 13.4006 40.278 13.9766 40.5097 14.2441C40.5097 16.797 40.5097 17.7829 40.5097 19.7541C40.5097 22.7555 38.0614 25.1895 35.0742 25.1895C31.7041 25.1895 29.4517 22.5775 29.4517 19.7541V14.9509C32.6894 15.0805 36.0531 14.1209 38.8032 12.4092ZM43.5458 17.4234C43.5458 17.8552 43.3589 18.2636 43.0331 18.5439C42.8933 18.6642 42.7339 18.7566 42.5606 18.8196V16.0301C43.1738 16.2526 43.5458 16.8163 43.5458 17.4234ZM47.3452 38.0707V39.8179L38.6275 43.1978L37.5161 36.6312L37.9376 35.9967L38.0474 36.0746C38.4308 36.3469 38.9119 36.4369 39.3664 36.3231C39.8218 36.2093 40.2033 35.9029 40.4131 35.4829V35.4827L42.1437 32.0142C42.7382 32.747 43.5982 33.1927 44.4839 33.3033C44.7967 35.2638 45.8562 36.937 47.3452 38.0707ZM35.0633 46.1364C34.6385 45.452 34.073 44.8187 33.3913 44.2782L34.5509 37.4274H35.5706L36.7308 44.2818C36.031 44.8376 35.4729 45.4766 35.0633 46.1364ZM22.7715 37.9509C24.2237 36.7796 25.1869 35.1252 25.4784 33.3032C26.4455 33.1822 27.3332 32.6725 27.9154 31.8884L29.7088 35.4827C29.7088 35.4827 29.7088 35.4827 29.709 35.4829C29.9186 35.903 30.3001 36.2093 30.7555 36.3231C31.2058 36.4357 31.6874 36.3495 32.0745 36.0746L32.1843 35.9967L32.6058 36.6312L31.4946 43.196L22.7715 39.8177V37.9509ZM35.0735 27.2405C35.0737 27.2405 35.0739 27.2405 35.0741 27.2405H35.0742C35.9763 27.2405 36.8911 27.0695 37.7077 26.7623V27.7946L35.0608 31.0618L32.4089 27.7883V26.8047C33.2675 27.1015 34.195 27.2402 35.0735 27.2405ZM44.3879 31.1805C43.785 30.9631 43.4027 30.4056 43.4027 29.7855C43.4027 29.1822 43.8399 28.6867 44.3879 28.4512V31.1805ZM38.8105 34.1011L38.2644 33.7133C38.2639 33.7129 38.2633 33.7124 38.2628 33.712L36.543 32.4904L37.4207 31.4069L39.0596 29.384L40.8231 30.0669L38.8105 34.1011ZM35.8874 35.3765H34.2344L33.8571 34.8087L35.061 33.9538L36.2648 34.8087L35.8874 35.3765ZM31.3114 34.1011L29.2985 30.0672L31.0582 29.3856L33.5755 32.4927L31.8589 33.712C31.8579 33.7126 31.8572 33.7133 31.8563 33.714L31.3114 34.1011ZM42.1476 24.7852V27.6241C41.99 27.8124 41.8544 28.013 41.7421 28.2234L39.7586 27.4553V25.5877C41.1739 24.449 42.1679 22.8081 42.4663 20.9374C42.6402 20.9155 42.8117 20.8843 42.9783 20.8388C42.4457 22.0474 42.1476 23.3819 42.1476 24.7852ZM27.4005 16.0889V18.8196C26.7993 18.6014 26.4153 18.0454 26.4153 17.4233C26.4153 16.8234 26.8494 16.3259 27.4005 16.0889ZM27.5006 20.9382C27.8024 22.7652 28.7936 24.5172 30.358 25.7085V27.4559L28.266 28.2667C28.1448 28.012 27.9932 27.7721 27.8132 27.5521V24.7853C27.8132 23.3938 27.5201 22.0563 26.9858 20.8399C27.1534 20.8856 27.3257 20.9166 27.5006 20.9382ZM17.5637 49.7895H18.5835L20.7614 62.6576L18.0737 65.6144L15.3859 62.6576L17.5637 49.7895ZM18.9001 47.7386H17.2471L16.8699 47.1708L18.0737 46.3159L19.2775 47.1708L18.9001 47.7386ZM54.6948 39.1245V40.157L52.048 43.4242L49.396 40.1507V39.167C50.258 39.4651 51.1866 39.6026 52.0607 39.6029C52.0608 39.6029 52.0611 39.6029 52.0612 39.6029H52.0613C52.9651 39.6027 53.88 39.4312 54.6948 39.1245ZM52.0613 37.5518C48.576 37.5518 46.4388 34.8221 46.4388 32.1164V27.3133C49.6536 27.4416 53.0217 26.4947 55.7903 24.7715C56.715 25.763 57.2651 26.339 57.4969 26.6064C57.4969 29.1594 57.4969 30.1452 57.4969 32.1164C57.497 35.0445 55.1191 37.5518 52.0613 37.5518ZM59.5479 31.1817V28.3922C60.1681 28.6182 60.5331 29.1849 60.5331 29.7857C60.5332 30.4088 60.148 30.9636 59.5479 31.1817ZM51.9677 17.016C56.2516 17.016 59.7367 20.5014 59.7367 24.7852V26.3188C59.6901 26.3091 59.5619 26.2869 59.5448 26.2843C59.5308 25.9946 59.4571 25.8174 59.2998 25.5911C59.0303 25.2041 58.5641 24.7423 57.0497 23.1144C56.5208 22.5467 55.6488 22.4189 54.9721 22.8612C52.4455 24.5116 49.2533 25.4439 46.216 25.2466C45.3627 25.1907 44.7446 25.6085 44.4888 26.3003C44.466 26.304 44.2128 26.3551 44.1984 26.3585V24.7852C44.1985 20.5013 47.6838 17.016 51.9677 17.016ZM27.2113 12.4231C27.2113 8.13903 30.6966 4.65394 34.9804 4.65394C39.2642 4.65394 42.7495 8.13917 42.7495 12.4231V13.9567C42.7031 13.9471 42.5746 13.9248 42.5575 13.9222C42.5423 13.6082 42.4518 13.4151 42.2671 13.1654C41.9926 12.7937 41.4864 12.2828 40.0624 10.7521C39.5247 10.1748 38.6513 10.0633 37.9848 10.4989C35.3166 12.2421 32.0798 13.0904 29.146 12.8803C28.4282 12.826 27.7524 13.2597 27.5016 13.9379C27.4788 13.9416 27.2255 13.9928 27.2113 13.9962V12.4231ZM9.42801 29.7857C9.42801 29.1823 9.86551 28.6866 10.4132 28.4513V31.1818C9.81205 30.9636 9.42801 30.4076 9.42801 29.7857ZM12.4643 32.1164V27.3133C15.7194 27.4433 19.0853 26.4709 21.8158 24.7715C22.7317 25.7537 23.2903 26.3387 23.5223 26.6064C23.5223 29.1594 23.5223 30.1452 23.5223 32.1164C23.5223 35.0987 21.0908 37.5518 18.0868 37.5518C14.7423 37.5518 12.4643 34.9696 12.4643 32.1164ZM18.0863 39.6027C18.0864 39.6027 18.0867 39.6027 18.0868 39.6027C19.0036 39.6027 19.9169 39.4266 20.7203 39.1245V40.157L18.0734 43.4242L15.4215 40.1507V39.167C16.2801 39.4638 17.2078 39.6026 18.0863 39.6027ZM2.11439 65.9433V49.8625C2.11439 46.5691 4.88937 45.3137 5.06901 45.2361L10.3902 43.1731L12.7214 47.8449C12.7214 47.8449 12.7214 47.845 12.7216 47.8451C12.9311 48.2652 13.3127 48.5715 13.7681 48.6854C14.2184 48.7979 14.7 48.7117 15.0871 48.4368L15.1968 48.3589L15.6184 48.9934L13.3276 62.528C13.3259 62.5381 13.3244 62.5483 13.3228 62.5586C13.2569 63.0359 13.4053 63.5277 13.7201 63.8745L15.7577 66.116H8.23405V51.1347C8.23405 50.5684 7.77508 50.1093 7.20866 50.1093C6.64223 50.1093 6.18327 50.5684 6.18327 51.1347V66.116H2.2872C2.19177 66.116 2.11439 66.0385 2.11439 65.9433ZM33.8652 66.116H29.9693V51.1347C29.9693 50.5684 29.5103 50.1093 28.9439 50.1093C28.3775 50.1093 27.9185 50.5684 27.9185 51.1347V66.116H20.3894L22.4272 63.8742C22.7419 63.5279 22.8903 63.0361 22.8242 62.5586C22.8227 62.5483 22.8212 62.5382 22.8195 62.528L20.5287 48.9934L20.9502 48.3589L21.06 48.4368C21.3344 48.6318 21.6593 48.7335 21.9889 48.7335C22.5903 48.7335 23.1504 48.3965 23.4258 47.8451V47.8449L25.7567 43.1733L31.0812 45.2354C32.6332 45.9105 34.0378 47.6516 34.0378 49.8625V65.9432C34.0379 66.0385 33.9605 66.116 33.8652 66.116ZM42.2086 66.116V51.1347C42.2086 50.5684 41.7496 50.1093 41.1832 50.1093C40.6168 50.1093 40.1578 50.5684 40.1578 51.1347V66.116H36.2618C36.1665 66.116 36.0889 66.0385 36.0889 65.9433V49.8625C36.0889 48.6435 36.4712 47.5208 37.2855 46.5776C37.8284 45.9548 38.5485 45.4506 39.0437 45.2361L40.4539 44.6894L44.3651 43.173L46.6962 47.8449C46.6962 47.8449 46.6962 47.845 46.6964 47.8451C46.906 48.2652 47.2875 48.5715 47.743 48.6854C48.1932 48.7979 48.6748 48.7117 49.0619 48.4368L49.1717 48.3589L49.5932 48.9934L47.3024 62.528C47.3007 62.5381 47.2992 62.5483 47.2977 62.5586C47.2318 63.0359 47.3801 63.5277 47.695 63.8745L49.7325 66.116H42.2089H42.2086ZM52.0481 65.6145L49.3603 62.6577L51.5383 49.7896H52.558L54.736 62.6577L52.0481 65.6145ZM52.8745 47.7386H51.2215L50.8443 47.1708L52.0481 46.3159L53.2519 47.1708L52.8745 47.7386ZM55.7977 46.4633C55.7975 46.463 53.562 44.8753 53.5303 44.8527C54.4947 43.6622 54.0416 44.2215 56.047 41.7463L57.8105 42.4293L55.7977 46.4633Z" fill="#AC5606"/>
</g>
<path d="M69.0438 55.113C64.1624 55.113 60.1895 51.1401 60.1895 46.2587C60.1895 41.3773 64.1624 37.4043 69.0438 37.4043C73.9252 37.4043 77.8982 41.3773 77.8982 46.2587C77.8982 51.1401 73.9252 55.113 69.0438 55.113Z" fill="#FFC086" stroke="#AC5606" stroke-width="2"/>
<path d="M62.9077 46.2585C62.9077 42.876 65.6611 40.1226 69.0436 40.1226C72.426 40.1226 75.1796 42.876 75.1796 46.2585C75.1796 49.641 72.4261 52.3944 69.0436 52.3944C65.6611 52.3944 62.9077 49.641 62.9077 46.2585Z" fill="#FFEBD4" stroke="#AC5606" stroke-width="2"/>
<path d="M67.9884 48.4284C68.1356 48.5675 68.327 48.6372 68.5184 48.6372C68.7091 48.6372 68.8998 48.5681 69.0469 48.4299L72.5533 45.1331C72.8528 44.8516 72.8588 44.3893 72.5671 44.1005C72.2751 43.8117 71.796 43.8056 71.4964 44.0872L68.5199 46.8858L67.2729 45.7069C66.9743 45.4246 66.4949 45.4292 66.2022 45.7173C65.9096 46.0053 65.9143 46.4678 66.213 46.75L67.9884 48.4284Z" fill="#AC5606"/>
<defs>
<clipPath id="clip0_177_1361">
<rect width="70" height="70" fill="white" transform="translate(0.0634766 0.384766)"/>
</clipPath>
</defs>
</svg>
