<svg width="70" height="71" viewBox="0 0 70 71" fill="none" xmlns="http://www.w3.org/2000/svg">
<path d="M65.9312 50.0407C65.7166 49.6679 65.4306 49.341 65.0896 49.0787C64.7486 48.8165 64.3592 48.624 63.9438 48.5123C63.5284 48.4005 63.095 48.3718 62.6684 48.4276C62.2419 48.4834 61.8305 48.6227 61.4578 48.8376L49.7875 55.5751H49.782C49.6265 55.0341 49.334 54.5425 48.9327 54.1477C48.5315 53.753 48.0351 53.4686 47.4917 53.3219L31.173 48.9469C30.0964 48.6586 28.9642 48.6492 27.883 48.9196L20.7812 50.6969V63.8219L23.7705 65.3171C24.6818 65.7722 25.6864 66.0093 26.705 66.0094H43.0861C44.2377 66.0111 45.3695 65.7093 46.3673 65.1344L64.7423 54.5251C65.4945 54.0879 66.0423 53.3699 66.2652 52.529C66.4882 51.6881 66.368 50.7931 65.9312 50.0407Z" fill="#FFF2D4"/>
<path d="M49.7821 55.575C49.7624 55.5105 49.7482 55.4437 49.7252 55.3803C49.7023 55.4481 49.6771 55.5148 49.6498 55.5794C49.3448 56.3084 48.7862 56.9023 48.0773 57.2514C47.3683 57.6004 46.5569 57.681 45.7932 57.4781L34.6829 54.4965C34.4152 54.4247 34.13 54.461 33.8888 54.5974C33.6476 54.7339 33.4697 54.9597 33.3934 55.2261C33.3547 55.361 33.3434 55.5023 33.3599 55.6417C33.3764 55.7811 33.4206 55.9158 33.4897 56.0379C33.5588 56.1601 33.6516 56.2673 33.7625 56.3532C33.8735 56.4392 34.0005 56.5022 34.136 56.5386L45.6095 59.6131C46.3622 59.8312 47.1669 59.7845 47.8893 59.4807C48.6117 59.177 49.208 58.6345 49.5787 57.944C49.9458 57.2091 50.0186 56.3618 49.7821 55.575Z" fill="#FFC086"/>
<path d="M47.0312 47.416C57.9044 47.416 66.7188 38.6016 66.7188 27.7285C66.7188 16.8554 57.9044 8.04102 47.0312 8.04102C36.1581 8.04102 27.3438 16.8554 27.3438 27.7285C27.3438 38.6016 36.1581 47.416 47.0312 47.416Z" fill="#FFEBBB"/>
<path d="M47.0312 41.9473C54.884 41.9473 61.25 35.5813 61.25 27.7285C61.25 19.8757 54.884 13.5098 47.0312 13.5098C39.1785 13.5098 32.8125 19.8757 32.8125 27.7285C32.8125 35.5813 39.1785 41.9473 47.0312 41.9473Z" fill="#FFEBBB"/>
<path d="M50.8681 14.0479C51.5568 16.4771 51.5847 19.0461 50.9489 21.4897C50.313 23.9333 49.0365 26.1629 47.2511 27.9483C45.4656 29.7338 43.236 31.0103 40.7924 31.6461C38.3488 32.282 35.7798 32.2541 33.3506 31.5653C34.0195 33.9548 35.3024 36.1274 37.0716 37.8672C38.8408 39.607 41.0346 40.8533 43.4349 41.4821C45.8352 42.1109 48.3583 42.1003 50.7533 41.4514C53.1482 40.8025 55.3315 39.5379 57.0861 37.7833C58.8406 36.0288 60.1052 33.8455 60.7541 31.4505C61.403 29.0556 61.4136 26.5325 60.7848 24.1322C60.156 21.7319 58.9097 19.538 57.1699 17.7688C55.4302 15.9997 53.2575 14.7168 50.8681 14.0479Z" fill="#FFC086"/>
<path d="M47.0312 29.916C48.2394 29.916 49.2188 28.9366 49.2188 27.7285C49.2188 26.5204 48.2394 25.541 47.0312 25.541C45.8231 25.541 44.8438 26.5204 44.8438 27.7285C44.8438 28.9366 45.8231 29.916 47.0312 29.916Z" fill="#FFDA44"/>
<path d="M12.0312 47.416H20.7812V67.1035H12.0312V47.416Z" fill="#FFF2D4"/>
<path d="M3.28125 49.6035H12.0312V64.916H3.28125V49.6035Z" fill="#BF5C00"/>
<path d="M9.84375 49.6035H12.0312V64.916H9.84375V49.6035Z" fill="#FFC086"/>
<path d="M66.8828 49.4941C66.3023 48.4909 65.348 47.7585 64.2288 47.4572C63.1096 47.1559 61.9166 47.3102 60.9109 47.8863L50.2469 54.0441C49.6645 53.1716 48.7868 52.5385 47.775 52.2613L31.4562 47.8973C30.2004 47.5584 28.8786 47.5471 27.6172 47.8645L21.875 49.2973V47.416C21.875 47.1259 21.7598 46.8477 21.5546 46.6426C21.3495 46.4375 21.0713 46.3223 20.7812 46.3223H12.0312C11.7412 46.3223 11.463 46.4375 11.2579 46.6426C11.0527 46.8477 10.9375 47.1259 10.9375 47.416V48.5098H3.28125C2.99117 48.5098 2.71297 48.625 2.50785 48.8301C2.30273 49.0352 2.1875 49.3134 2.1875 49.6035C2.1875 49.8936 2.30273 50.1718 2.50785 50.3769C2.71297 50.582 2.99117 50.6973 3.28125 50.6973H10.9375V63.8223H3.28125C2.99117 63.8223 2.71297 63.9375 2.50785 64.1426C2.30273 64.3477 2.1875 64.6259 2.1875 64.916C2.1875 65.2061 2.30273 65.4843 2.50785 65.6894C2.71297 65.8945 2.99117 66.0098 3.28125 66.0098H10.9375V67.1035C10.9375 67.3936 11.0527 67.6718 11.2579 67.8769C11.463 68.082 11.7412 68.1973 12.0312 68.1973H20.7812C21.0713 68.1973 21.3495 68.082 21.5546 67.8769C21.7598 67.6718 21.875 67.3936 21.875 67.1035V65.5941L23.2859 66.2941C24.3492 66.8248 25.521 67.1019 26.7094 67.1035H43.0828C44.4275 67.1064 45.7487 66.7516 46.9109 66.0754L65.2859 55.466C66.2868 54.8833 67.0165 53.9282 67.3157 52.8093C67.6149 51.6905 67.4593 50.4987 66.8828 49.4941ZM19.6875 66.0098H13.125V48.5098H19.6875V66.0098ZM64.1922 53.5738L45.8172 64.1832C44.9862 64.6641 44.0429 64.9169 43.0828 64.916H26.7094C25.8585 64.9177 25.0192 64.7192 24.2594 64.3363L21.875 63.1441V51.5504L28.1422 49.9863C29.0441 49.7583 29.9894 49.7658 30.8875 50.0082L47.2062 54.3832C47.6261 54.4922 48.0038 54.7241 48.291 55.0492C48.5782 55.3743 48.7617 55.7777 48.8181 56.2078C48.8745 56.6379 48.8012 57.075 48.6076 57.4631C48.4139 57.8513 48.1088 58.1727 47.7312 58.3863C47.4847 58.5317 47.2114 58.6261 46.9277 58.6636C46.644 58.7012 46.3556 58.6813 46.0797 58.6051L33.0312 55.1051C32.7499 55.0297 32.4501 55.0691 32.1978 55.2147C31.9455 55.3604 31.7614 55.6003 31.6859 55.8816C31.6105 56.163 31.65 56.4628 31.7956 56.7151C31.9412 56.9674 32.1811 57.1515 32.4625 57.227L45.5109 60.716C45.8819 60.8159 46.2643 60.8674 46.6484 60.8691C47.4137 60.8702 48.1653 60.6663 48.825 60.2785C49.3249 59.993 49.7631 59.611 50.1142 59.1548C50.4653 58.6985 50.7223 58.1771 50.8703 57.6207C50.9916 57.1385 51.0323 56.6396 50.9906 56.1441L62.0047 49.7895C62.5072 49.5105 63.0986 49.4378 63.6537 49.5868C64.2089 49.7358 64.6843 50.0948 64.9797 50.5879C65.2702 51.0885 65.3504 51.6839 65.2028 52.2435C65.0552 52.8032 64.6918 53.2816 64.1922 53.5738Z" fill="#AC5606"/>
<path d="M52.4451 20.7675L48.4365 24.775C47.9997 24.5584 47.5187 24.4457 47.0311 24.4457C46.5435 24.4457 46.0624 24.5584 45.6256 24.775L43.1647 22.3129C43.0638 22.2085 42.9431 22.1252 42.8096 22.0678C42.6762 22.0105 42.5327 21.9803 42.3874 21.9791C42.2422 21.9778 42.0982 22.0055 41.9638 22.0605C41.8293 22.1155 41.7072 22.1967 41.6045 22.2994C41.5018 22.4021 41.4206 22.5242 41.3656 22.6586C41.3106 22.793 41.283 22.9371 41.2842 23.0823C41.2855 23.2275 41.3157 23.371 41.373 23.5045C41.4303 23.6379 41.5136 23.7586 41.6181 23.8595L44.079 26.3215C43.8649 26.7597 43.7524 27.2405 43.7498 27.7281C43.7498 28.5983 44.0955 29.4329 44.7109 30.0483C45.3262 30.6637 46.1608 31.0094 47.0311 31.0094C47.9013 31.0094 48.7359 30.6637 49.3512 30.0483C49.9666 29.4329 50.3123 28.5983 50.3123 27.7281C50.3104 27.2409 50.1982 26.7604 49.9842 26.3226L53.9928 22.314C54.192 22.1078 54.3023 21.8315 54.2998 21.5447C54.2973 21.2579 54.1822 20.9836 53.9795 20.7808C53.7767 20.578 53.5023 20.463 53.2156 20.4605C52.9288 20.458 52.6514 20.5682 52.4451 20.7675ZM47.0311 28.8219C46.8147 28.8219 46.6033 28.7577 46.4234 28.6375C46.2435 28.5173 46.1033 28.3465 46.0206 28.1467C45.9378 27.9468 45.9161 27.7269 45.9583 27.5147C46.0005 27.3026 46.1047 27.1077 46.2577 26.9547C46.4106 26.8017 46.6055 26.6976 46.8177 26.6554C47.0298 26.6132 47.2498 26.6348 47.4496 26.7176C47.6495 26.8004 47.8203 26.9406 47.9405 27.1204C48.0607 27.3003 48.1248 27.5118 48.1248 27.7281C48.1248 28.0182 48.0096 28.2964 47.8045 28.5015C47.5993 28.7066 47.3211 28.8219 47.0311 28.8219Z" fill="#AC5606"/>
<path d="M47.2861 7.18066C43.176 7.18066 39.1582 8.39946 35.7407 10.6829C32.3232 12.9664 29.6597 16.212 28.0868 20.0093C26.5139 23.8066 26.1023 27.985 26.9042 32.0161C27.706 36.0473 29.6853 39.7502 32.5916 42.6565C35.4979 45.5628 39.2008 47.542 43.2319 48.3439C47.2631 49.1457 51.4415 48.7342 55.2388 47.1613C59.0361 45.5884 62.2816 42.9248 64.5651 39.5074C66.8486 36.0899 68.0674 32.0721 68.0674 27.9619C68.0625 22.4519 65.8714 17.169 61.9753 13.2728C58.0791 9.37662 52.7962 7.18559 47.2861 7.18066ZM47.2861 46.5557C43.6086 46.5557 40.0137 45.4652 36.956 43.4221C33.8983 41.3789 31.5151 38.475 30.1078 35.0774C28.7004 31.6799 28.3322 27.9413 29.0497 24.3345C29.7671 20.7276 31.538 17.4145 34.1384 14.8141C36.7388 12.2138 40.0518 10.4429 43.6587 9.72544C47.2655 9.00799 51.0041 9.37621 54.4017 10.7835C57.7992 12.1908 60.7032 14.5741 62.7463 17.6318C64.7894 20.6895 65.8799 24.2844 65.8799 27.9619C65.8729 32.8912 63.9117 37.6165 60.4262 41.102C56.9407 44.5875 52.2154 46.5487 47.2861 46.5557Z" fill="#AC5606"/>
<path d="M47.0313 12.416C44.0027 12.416 41.0422 13.3141 38.5241 14.9966C36.006 16.6792 34.0433 19.0707 32.8844 21.8687C31.7254 24.6667 31.4221 27.7455 32.013 30.7158C32.6038 33.6862 34.0622 36.4146 36.2037 38.5561C38.3452 40.6976 41.0736 42.156 44.0439 42.7468C47.0143 43.3376 50.0931 43.0344 52.8911 41.8754C55.6891 40.7165 58.0806 38.7538 59.7631 36.2357C61.4457 33.7176 62.3438 30.757 62.3438 27.7285C62.3394 23.6687 60.7247 19.7765 57.854 16.9057C54.9833 14.035 51.0911 12.4204 47.0313 12.416ZM58.8875 33.3176L58.0016 32.7926C57.8766 32.7208 57.7387 32.6743 57.5958 32.6557C57.4529 32.6372 57.3077 32.647 57.1685 32.6846C57.0294 32.7222 56.899 32.7868 56.7848 32.8748C56.6707 32.9627 56.5749 33.0723 56.5031 33.1973C56.4313 33.3222 56.3848 33.4601 56.3663 33.603C56.3478 33.746 56.3576 33.8912 56.3951 34.0303C56.4327 34.1694 56.4973 34.2998 56.5853 34.414C56.6733 34.5282 56.7829 34.6239 56.9078 34.6957L57.8047 35.2098C56.907 36.4902 55.7929 37.6042 54.5125 38.502L53.9984 37.6051C53.8534 37.3527 53.6141 37.1683 53.333 37.0924C53.052 37.0165 52.7524 37.0554 52.5 37.2004C52.2476 37.3454 52.0632 37.5848 51.9873 37.8658C51.9114 38.1468 51.9503 38.4465 52.0953 38.6988L52.6203 39.5848C51.2073 40.257 49.6844 40.6683 48.125 40.7988V39.7598C48.125 39.4697 48.0098 39.1915 47.8047 38.9864C47.5995 38.7813 47.3213 38.666 47.0313 38.666C46.7412 38.666 46.463 38.7813 46.2579 38.9864C46.0527 39.1915 45.9375 39.4697 45.9375 39.7598V40.7988C44.3782 40.6683 42.8552 40.257 41.4422 39.5848L41.9672 38.6988C42.1122 38.4465 42.1511 38.1468 42.0752 37.8658C41.9993 37.5848 41.8149 37.3454 41.5625 37.2004C41.3101 37.0554 41.0105 37.0165 40.7295 37.0924C40.4485 37.1683 40.2091 37.3527 40.0641 37.6051L39.55 38.502C38.2696 37.6042 37.1555 36.4902 36.2578 35.2098L37.1547 34.6957C37.4071 34.5507 37.5915 34.3113 37.6674 34.0303C37.7433 33.7493 37.7044 33.4496 37.5594 33.1973C37.4143 32.9449 37.175 32.7605 36.894 32.6846C36.613 32.6087 36.3133 32.6475 36.0609 32.7926L35.175 33.3176C34.5028 31.9045 34.0915 30.3816 33.9609 28.8223H35C35.2901 28.8223 35.5683 28.707 35.7734 28.5019C35.9785 28.2968 36.0938 28.0186 36.0938 27.7285C36.0938 27.4384 35.9785 27.1602 35.7734 26.9551C35.5683 26.75 35.2901 26.6348 35 26.6348H33.9609C34.0915 25.0754 34.5028 23.5525 35.175 22.1395L36.0609 22.6645C36.3133 22.8095 36.613 22.8483 36.894 22.7724C37.175 22.6966 37.4143 22.5121 37.5594 22.2598C37.7044 22.0074 37.7433 21.7077 37.6674 21.4267C37.5915 21.1457 37.4071 20.9064 37.1547 20.7613L36.2578 20.2473C37.1555 18.9669 38.2696 17.8528 39.55 16.9551L40.0641 17.852C40.2091 18.1043 40.4485 18.2887 40.7295 18.3646C41.0105 18.4405 41.3101 18.4017 41.5625 18.2566C41.8149 18.1116 41.9993 17.8722 42.0752 17.5912C42.1511 17.3102 42.1122 17.0106 41.9672 16.7582L41.4422 15.8723C42.8552 15.2 44.3782 14.7887 45.9375 14.6582V15.6973C45.9375 15.9873 46.0527 16.2655 46.2579 16.4707C46.463 16.6758 46.7412 16.791 47.0313 16.791C47.3213 16.791 47.5995 16.6758 47.8047 16.4707C48.0098 16.2655 48.125 15.9873 48.125 15.6973V14.6582C49.6844 14.7887 51.2073 15.2 52.6203 15.8723L52.0953 16.7582C51.9503 17.0106 51.9114 17.3102 51.9873 17.5912C52.0632 17.8722 52.2476 18.1116 52.5 18.2566C52.7524 18.4017 53.052 18.4405 53.333 18.3646C53.6141 18.2887 53.8534 18.1043 53.9984 17.852L54.5125 16.9551C55.7929 17.8528 56.907 18.9669 57.8047 20.2473L56.9078 20.7613C56.6554 20.9064 56.471 21.1457 56.3951 21.4267C56.3192 21.7077 56.3581 22.0074 56.5031 22.2598C56.6482 22.5121 56.8875 22.6966 57.1685 22.7724C57.4495 22.8483 57.7492 22.8095 58.0016 22.6645L58.8875 22.1395C59.5597 23.5525 59.971 25.0754 60.1016 26.6348H59.0625C58.7724 26.6348 58.4942 26.75 58.2891 26.9551C58.084 27.1602 57.9688 27.4384 57.9688 27.7285C57.9688 28.0186 58.084 28.2968 58.2891 28.5019C58.4942 28.707 58.7724 28.8223 59.0625 28.8223H60.1016C59.971 30.3816 59.5597 31.9045 58.8875 33.3176Z" fill="#AC5606"/>
</svg>
