<svg width="82" height="81" viewBox="0 0 82 81" fill="none" xmlns="http://www.w3.org/2000/svg">
<path d="M63.346 30.0947H12.7354C9.97393 30.0947 7.73535 32.3333 7.73535 35.0947V44.3049C7.73535 47.0663 9.97392 49.3049 12.7353 49.3049H63.346C66.1074 49.3049 68.346 47.0663 68.346 44.3049V35.0947C68.346 32.3333 66.1074 30.0947 63.346 30.0947Z" fill="#AA5200"/>
<path d="M21.9378 39.6789C21.9378 38.1519 20.6932 36.9141 19.1579 36.9141C17.6226 36.9141 16.3779 38.1519 16.3779 39.6789C16.3779 41.2058 17.6226 42.4436 19.1579 42.4436C20.6932 42.4436 21.9378 41.2058 21.9378 39.6789Z" fill="white"/>
<path d="M63.346 50.8047H12.7354C9.97393 50.8047 7.73535 53.0433 7.73535 55.8047V65.0148C7.73535 67.7762 9.97392 70.0148 12.7353 70.0148H63.346C66.1074 70.0148 68.346 67.7762 68.346 65.0148V55.8047C68.346 53.0433 66.1074 50.8047 63.346 50.8047Z" fill="#AA5200"/>
<path d="M21.9378 60.6281C21.9378 59.1011 20.6932 57.8633 19.1579 57.8633C17.6226 57.8633 16.3779 59.1011 16.3779 60.6281C16.3779 62.155 17.6226 63.3929 19.1579 63.3929C20.6932 63.3929 21.9378 62.155 21.9378 60.6281Z" fill="white"/>
<path d="M63.346 9.38477H12.7354C9.97393 9.38477 7.73535 11.6233 7.73535 14.3848V23.5949C7.73535 26.3563 9.97393 28.5949 12.7354 28.5949H63.346C66.1074 28.5949 68.346 26.3563 68.346 23.5949V14.3848C68.346 11.6233 66.1074 9.38477 63.346 9.38477Z" fill="#AA5200"/>
<path d="M21.9378 18.755C21.9378 17.2281 20.6932 15.9902 19.1579 15.9902C17.6226 15.9902 16.3779 17.2281 16.3779 18.755C16.3779 20.282 17.6226 21.5198 19.1579 21.5198C20.6932 21.5198 21.9378 20.282 21.9378 18.755Z" fill="white"/>
<ellipse cx="61.8904" cy="59.2838" rx="14.1795" ry="14.1021" fill="#AA5200" stroke="white" stroke-width="2.5"/>
<path d="M61.8901 52.2334L61.8901 59.2845" stroke="white" stroke-width="3" stroke-linecap="round" stroke-linejoin="round"/>
<path d="M61.8901 63.9854L61.8901 65.1605" stroke="white" stroke-width="3" stroke-linecap="round" stroke-linejoin="round"/>
</svg>
