<svg width="82" height="81" viewBox="0 0 82 81" fill="none" xmlns="http://www.w3.org/2000/svg">
<path d="M70.4298 11.1989C70.4054 11.0804 70.3476 10.9712 70.2633 10.8843C70.179 10.7974 70.0717 10.7364 69.9539 10.7083C62.1025 8.78867 43.9613 15.6293 34.1326 25.454C32.3796 27.1929 30.7814 29.0812 29.3563 31.0976C26.3254 30.8295 23.2945 31.0533 20.7113 32.1794C13.4229 35.3872 11.3009 43.7574 10.7097 47.3581C10.6762 47.5551 10.6888 47.7573 10.7467 47.9487C10.8045 48.14 10.9059 48.3154 11.043 48.4609C11.1801 48.6064 11.349 48.7181 11.5366 48.7873C11.7242 48.8565 11.9252 48.8812 12.124 48.8594L23.828 47.5685C23.8364 48.4509 23.8896 49.3323 23.9876 50.2093C24.0465 50.8184 24.3168 51.3875 24.7516 51.818L29.2839 56.3395C29.7148 56.7738 30.2837 57.0441 30.8926 57.1036C31.7647 57.2012 32.6411 57.2544 33.5186 57.2632L32.2344 68.9525C32.213 69.1511 32.2379 69.3521 32.3072 69.5395C32.3764 69.7269 32.4881 69.8958 32.6336 70.0328C32.779 70.1698 32.9543 70.2713 33.1455 70.3292C33.3367 70.3871 33.5388 70.4 33.7358 70.3667C37.3297 69.7903 45.7147 67.6683 48.9038 60.3799C50.0298 57.7967 50.2604 54.7805 50.0003 51.7644C52.0216 50.3392 53.9149 48.7406 55.6587 46.9867C65.5182 37.1768 72.32 19.4404 70.4298 11.1989ZM45.8219 35.284C44.9216 34.3843 44.3084 33.2378 44.0598 31.9895C43.8111 30.7412 43.9383 29.4473 44.4252 28.2713C44.9121 27.0953 45.7368 26.0901 46.7951 25.3829C47.8533 24.6756 49.0975 24.2982 50.3703 24.2982C51.6431 24.2982 52.8873 24.6756 53.9456 25.3829C55.0038 26.0901 55.8285 27.0953 56.3154 28.2713C56.8023 29.4473 56.9295 30.7412 56.6809 31.9895C56.4322 33.2378 55.819 34.3843 54.9187 35.284C54.3217 35.8819 53.6127 36.3562 52.8322 36.6798C52.0518 37.0034 51.2152 37.1699 50.3703 37.1699C49.5254 37.1699 48.6888 37.0034 47.9084 36.6798C47.1279 36.3562 46.4189 35.8819 45.8219 35.284Z" fill="#AA5200"/>
<path d="M28.9753 59.6142C28.2407 60.3502 27.0624 60.6371 25.6441 60.8824C22.4577 61.4253 19.6439 58.6719 20.2163 55.4506C20.4349 54.2294 21.081 52.5175 21.4831 52.1154C21.571 52.0292 21.6295 51.9175 21.6503 51.7961C21.6712 51.6748 21.6532 51.55 21.599 51.4394C21.5449 51.3288 21.4572 51.2382 21.3486 51.1802C21.24 51.1223 21.1158 51.1001 20.9938 51.1167C19.212 51.3347 17.5543 52.1426 16.2846 53.4117C13.133 56.5659 12.8354 68.27 12.8354 68.27C12.8354 68.27 24.5462 67.9724 27.6978 64.8181C28.9708 63.5495 29.7797 61.8893 29.9941 60.1049C30.0437 59.5445 29.3614 59.2107 28.9753 59.6142Z" fill="#AA5200"/>
</svg>
