<svg width="81" height="81" viewBox="0 0 81 81" fill="none" xmlns="http://www.w3.org/2000/svg">
<path d="M45.9643 54.5503C44.2107 52.7828 43.2274 50.3996 43.2274 47.9165C43.2274 45.4334 44.2107 43.0501 45.9643 41.2826L46.8311 40.4206L45.9643 39.5586C44.5045 38.0009 43.6241 35.9935 43.4695 33.8696C43.3149 31.7457 43.8952 29.6332 45.1142 27.8825C46.3331 26.1319 48.1174 24.8485 50.1709 24.2454C52.2243 23.6422 54.4234 23.7557 56.403 24.5669V14.1851C56.4012 13.5071 56.2145 12.8422 55.8628 12.2614C55.511 11.6806 55.0075 11.2056 54.4057 10.8869C53.8329 10.5579 53.183 10.3848 52.5215 10.3848C51.86 10.3848 51.2101 10.5579 50.6372 10.8869L28.8931 25.4289H18.7181C16.7192 25.4289 14.8021 26.2186 13.3887 27.6244C11.9752 29.0301 11.1812 30.9367 11.1812 32.9247V47.9165C11.1812 49.9045 11.9752 51.8111 13.3887 53.2169C14.8021 54.6226 16.7192 55.4124 18.7181 55.4124H28.8931L50.5619 69.7669C51.1287 70.1382 51.7857 70.3503 52.4637 70.3809C53.1416 70.4115 53.8153 70.2595 54.4136 69.9409C55.0118 69.6223 55.5125 69.1489 55.8627 68.5707C56.2128 67.9926 56.3995 67.3311 56.403 66.6562V56.4243C54.6675 57.1508 52.7572 57.3605 50.9041 57.0278C49.051 56.6951 47.3349 55.8345 45.9643 54.5503Z" fill="#AA5200"/>
<path d="M64.1018 40.4203L69.0009 35.5854C69.3522 35.236 69.631 34.8211 69.8211 34.3645C70.0113 33.908 70.1091 33.4186 70.1091 32.9244C70.1091 32.4302 70.0113 31.9408 69.8211 31.4843C69.631 31.0277 69.3522 30.6128 69.0009 30.2634C68.6495 29.9139 68.2324 29.6367 67.7733 29.4476C67.3142 29.2585 66.8221 29.1611 66.3252 29.1611C65.8283 29.1611 65.3363 29.2585 64.8772 29.4476C64.4181 29.6367 64.001 29.9139 63.6496 30.2634L58.7883 35.1357L53.9269 30.2634C53.2173 29.5576 52.2548 29.1611 51.2513 29.1611C50.2477 29.1611 49.2853 29.5576 48.5757 30.2634C47.866 30.9691 47.4674 31.9263 47.4674 32.9244C47.4674 33.9225 47.866 34.8797 48.5757 35.5854L53.4747 40.4203L48.5757 45.2551C48.2224 45.6035 47.9421 46.0181 47.7508 46.4748C47.5594 46.9315 47.4609 47.4214 47.4609 47.9161C47.4609 48.4109 47.5594 48.9008 47.7508 49.3575C47.9421 49.8142 48.2224 50.2288 48.5757 50.5772C48.926 50.9285 49.3428 51.2073 49.802 51.3976C50.2612 51.5878 50.7538 51.6858 51.2513 51.6858C51.7488 51.6858 52.2413 51.5878 52.7006 51.3976C53.1598 51.2073 53.5766 50.9285 53.9269 50.5772L58.7883 45.7049L63.6496 50.5772C63.9999 50.9285 64.4167 51.2073 64.876 51.3976C65.3352 51.5878 65.8278 51.6858 66.3252 51.6858C66.8227 51.6858 67.3153 51.5878 67.7745 51.3976C68.2337 51.2073 68.6505 50.9285 69.0009 50.5772C69.3541 50.2288 69.6344 49.8142 69.8258 49.3575C70.0171 48.9008 70.1156 48.4109 70.1156 47.9161C70.1156 47.4214 70.0171 46.9315 69.8258 46.4748C69.6344 46.0181 69.3541 45.6035 69.0009 45.2551L64.1018 40.4203Z" fill="#AA5200"/>
</svg>
