<svg width="83" height="81" viewBox="0 0 83 81" fill="none" xmlns="http://www.w3.org/2000/svg">
<path fill-rule="evenodd" clip-rule="evenodd" d="M30.175 16.3848C31.0019 16.3848 31.7532 16.8634 32.0986 17.6105C32.4441 18.3576 32.3207 19.2363 31.7825 19.8607L18.7423 34.9913V56.6724C18.7423 57.8352 17.7944 58.778 16.6251 58.778C15.4559 58.778 14.508 57.8352 14.508 56.6724V34.9913L1.46775 19.8607C0.929707 19.2363 0.806205 18.3576 1.15173 17.6105C1.49725 16.8634 2.24842 16.3848 3.07525 16.3848H30.175ZM7.67854 20.596L14.508 28.5203V20.596H7.67854ZM18.7423 20.596V28.5203L25.5719 20.596H18.7423ZM29.4691 36.5996H37.091C38.2603 36.5996 39.2081 37.5424 39.2081 38.7052V56.6732C39.2081 57.8361 38.2602 58.7788 37.091 58.7788H29.4691C28.2999 58.7788 27.352 57.8361 27.352 56.6732V38.7052C27.352 37.5424 28.2999 36.5996 29.4691 36.5996ZM71.107 16.3848H63.344C62.1748 16.3848 61.2268 17.3275 61.2268 18.4904V56.6724C61.2268 57.8352 62.1748 58.778 63.344 58.778H71.107C72.2762 58.778 73.2242 57.8352 73.2242 56.6724V18.4904C73.2242 17.3275 72.2764 16.3848 71.107 16.3848ZM46.4067 26.4912H54.0286C55.198 26.4912 56.1457 27.434 56.1457 28.5968V56.6718C56.1457 57.8347 55.1978 58.7774 54.0286 58.7774H46.4067C45.2375 58.7774 44.2896 57.8347 44.2896 56.6718V28.5968C44.2896 27.434 45.2375 26.4912 46.4067 26.4912Z" fill="#AA5200"/>
<path d="M81.3971 52.6941C81.3971 59.7024 75.685 65.3834 68.6383 65.3834C61.5918 65.3834 55.8794 59.7024 55.8794 52.6941C55.8794 45.6861 61.5918 40.0049 68.6383 40.0049C75.685 40.0049 81.3971 45.6861 81.3971 52.6941Z" fill="#AA5200" stroke="white" stroke-width="2"/>
<path d="M62.3223 48.1261L66.8334 52.6942L62.3223 57.1355L64.1266 58.912L68.6375 54.4708L73.1491 58.912L74.9532 57.1355L70.4416 52.6942L74.9532 48.1261L73.1491 46.3496L68.6375 50.7909L64.1266 46.3496L62.3223 48.1261Z" fill="white"/>
</svg>
