<svg width="60" height="59" viewBox="0 0 60 59" fill="none" xmlns="http://www.w3.org/2000/svg">
<path d="M13.5582 23.2147C16.0744 23.2147 18.1141 21.1843 18.1141 18.6796C18.1141 16.175 16.0744 14.1445 13.5582 14.1445C11.0421 14.1445 9.00244 16.175 9.00244 18.6796C9.00244 21.1843 11.0421 23.2147 13.5582 23.2147Z" fill="#FEFFCC"/>
<path d="M52.7381 3.25977C51.7715 3.25977 50.8445 3.64201 50.161 4.32241C49.4775 5.00281 49.0935 5.92562 49.0935 6.88785V39.5406H48.1823L46.36 37.7266L45.7768 34.2164C45.6909 33.707 45.4364 33.2407 45.0538 32.8917C44.6712 32.5428 44.1823 32.3312 43.665 32.2905C43.1476 32.2499 42.6315 32.3825 42.1986 32.6674C41.7657 32.9522 41.4408 33.3729 41.2757 33.8627L40.893 35.0055V37.7266H33.6037C33.1215 37.7301 32.6601 37.9224 32.3191 38.2618C31.9781 38.6013 31.785 39.0606 31.7814 39.5406C31.7828 40.0213 31.9753 40.4819 32.3167 40.8218C32.6582 41.1617 33.1208 41.3532 33.6037 41.3547C33.1215 41.3582 32.6601 41.5505 32.3191 41.8899C31.9781 42.2294 31.785 42.6887 31.7814 43.1687C31.7828 43.6494 31.9753 44.11 32.3167 44.4499C32.6582 44.7897 33.1208 44.9813 33.6037 44.9828C33.1215 44.9863 32.6601 45.1786 32.3191 45.518C31.9781 45.8574 31.785 46.3168 31.7814 46.7968C31.7828 47.2775 31.9753 47.7381 32.3167 48.0779C32.6582 48.4178 33.1208 48.6094 33.6037 48.6108H11.7358V27.2051L11.9727 26.6881C13.0196 26.8937 14.0967 26.8937 15.1436 26.6881L18.114 33.1915L19.9363 29.5634H23.5809L19.4807 24.3117C20.5923 23.1577 21.3384 21.7037 21.6263 20.1308C21.9143 18.5579 21.7313 16.9354 21.1001 15.4652C20.469 13.995 19.4175 12.7419 18.0765 11.862C16.7356 10.982 15.1643 10.5139 13.5582 10.5159C12.9453 10.5171 12.3343 10.584 11.7358 10.7155V6.88785C11.7358 5.92562 12.1198 5.00281 12.8033 4.32241C13.4868 3.64201 14.4139 3.25977 15.3805 3.25977H52.7381Z" fill="#98FFC8"/>
<path d="M45.4485 55.8675H9.00207C8.03545 55.8675 7.10842 55.4853 6.42491 54.8049C5.74141 54.1245 5.35742 53.2016 5.35742 52.2394V48.6113H34.5146C34.0324 48.6149 33.5709 48.8072 33.23 49.1466C32.889 49.486 32.6958 49.9454 32.6923 50.4254C32.6937 50.906 32.8862 51.3666 33.2276 51.7065C33.569 52.0464 34.0317 52.238 34.5146 52.2394H41.8039C41.8039 53.2016 42.1879 54.1245 42.8714 54.8049C43.5549 55.4853 44.4819 55.8675 45.4485 55.8675Z" fill="#98FFC8"/>
<path d="M53.649 38.6338C55.1587 38.6338 56.3825 39.8576 56.3825 41.3673V48.5986C56.3825 50.1083 55.1587 51.3321 53.649 51.3321H51.8225C51.3216 51.3321 50.9155 50.926 50.9155 50.4251V39.5408C50.9155 39.0399 51.3216 38.6338 51.8225 38.6338H53.649Z" fill="#98FFC8"/>
<path d="M56.3828 11.4237C56.6245 11.4237 56.8562 11.3282 57.0271 11.1581C57.198 10.988 57.294 10.7573 57.294 10.5167V6.88862C57.294 5.68584 56.814 4.53232 55.9596 3.68182C55.1052 2.83132 53.9465 2.35352 52.7382 2.35352H15.3806C14.1723 2.35352 13.0135 2.83132 12.1591 3.68182C11.3047 4.53232 10.8247 5.68584 10.8247 6.88862V10.0269C9.41112 10.4686 8.12714 11.2471 7.08421 12.2947C6.04129 13.3423 5.27093 14.6274 4.84001 16.0386C4.40908 17.4497 4.33059 18.9442 4.61136 20.3924C4.89213 21.8405 5.52367 23.1986 6.45117 24.3488L2.81564 29.0109C2.71135 29.1445 2.6467 29.3045 2.62898 29.4728C2.61127 29.6411 2.64121 29.811 2.71541 29.9633C2.79156 30.1151 2.90852 30.243 3.05329 30.3326C3.19805 30.4223 3.36496 30.4703 3.53546 30.4712H6.61518L8.19149 33.6004C8.2662 33.7508 8.38182 33.8773 8.52518 33.9655C8.66855 34.0537 8.8339 34.1 9.00243 34.0993H9.02065C9.19245 34.094 9.35935 34.0411 9.50261 33.9466C9.64587 33.852 9.7598 33.7196 9.83158 33.5641L10.8247 31.3964V47.7046H5.35778C5.11613 47.7046 4.88437 47.8002 4.71349 47.9703C4.54262 48.1404 4.44662 48.3711 4.44662 48.6116V52.2397C4.44662 53.4425 4.9266 54.596 5.78098 55.4465C6.63536 56.297 7.79415 56.7748 9.00243 56.7748H45.4489C46.6572 56.7748 47.8159 56.297 48.6703 55.4465C49.5247 54.596 50.0047 53.4425 50.0047 52.2397V51.3327C50.0047 51.5732 50.1007 51.804 50.2716 51.974C50.4424 52.1441 50.6742 52.2397 50.9159 52.2397H56.3828C56.6245 52.2397 56.8562 52.1441 57.0271 51.974C57.198 51.804 57.294 51.5732 57.294 51.3327V38.6344C57.294 38.3938 57.198 38.1631 57.0271 37.993C56.8562 37.8229 56.6245 37.7274 56.3828 37.7274H50.9159C50.6742 37.7274 50.4424 37.8229 50.2716 37.993C50.1007 38.1631 50.0047 38.3938 50.0047 38.6344V11.4237H56.3828ZM50.0047 6.88862C50.0047 6.16695 50.2927 5.47484 50.8053 4.96454C51.3179 4.45424 52.0132 4.16756 52.7382 4.16756C53.4631 4.16756 54.1584 4.45424 54.671 4.96454C55.1837 5.47484 55.4717 6.16695 55.4717 6.88862V9.60969H50.0047V6.88862ZM51.827 39.5414H55.4717V50.4257H51.827V39.5414ZM12.6471 6.88862C12.6492 6.16762 12.9379 5.47675 13.4501 4.96692C13.9622 4.45709 14.6563 4.16971 15.3806 4.16756H49.1209C48.5151 4.94671 48.1851 5.90338 48.1824 6.88862V38.2625L47.2074 37.292L46.6698 34.0721C46.5522 33.3621 46.1989 32.7119 45.6665 32.2252C45.1341 31.7385 44.4533 31.4434 43.7327 31.3871C43.0121 31.3307 42.2933 31.5162 41.691 31.9142C41.0888 32.3121 40.6378 32.8994 40.4102 33.5823L40.0275 34.716C39.999 34.8103 39.9837 34.9079 39.9819 35.0063V36.8203H33.6038C32.8795 36.8225 32.1855 37.1099 31.6733 37.6197C31.1611 38.1295 30.8725 38.8204 30.8703 39.5414C30.8721 40.2131 31.1255 40.8599 31.581 41.3554C31.1239 41.85 30.8703 42.4975 30.8703 43.1695C30.8703 43.8415 31.1239 44.489 31.581 44.9835C31.1255 45.479 30.8721 46.1259 30.8703 46.7976C30.8728 47.107 30.9282 47.4137 31.0343 47.7046H12.6471V27.7048C12.9478 27.732 13.2484 27.7501 13.5582 27.7501C13.9054 27.7476 14.2521 27.7264 14.597 27.6866L17.2849 33.5641C17.3567 33.7196 17.4706 33.852 17.6139 33.9466C17.7571 34.0411 17.924 34.094 18.0958 34.0993H18.114C18.2826 34.1 18.4479 34.0537 18.5913 33.9655C18.7346 33.8773 18.8503 33.7508 18.925 33.6004L20.5013 30.4712H23.581C23.7515 30.4703 23.9184 30.4223 24.0632 30.3326C24.2079 30.243 24.3249 30.1151 24.4011 29.9633C24.4753 29.811 24.5052 29.6411 24.4875 29.4728C24.4698 29.3045 24.4051 29.1445 24.3008 29.0109L20.6653 24.3488C21.7401 23.0158 22.4145 21.4076 22.6105 19.7095C22.8066 18.0114 22.5164 16.2928 21.7733 14.7519C21.0303 13.2109 19.8648 11.9105 18.4112 11.0007C16.9576 10.0908 15.2753 9.60862 13.5582 9.60969C13.2484 9.60969 12.9478 9.62783 12.6471 9.65504V6.88862ZM33.6038 42.2625H36.3373C36.5789 42.2625 36.8107 42.358 36.9816 42.5281C37.1524 42.6982 37.2484 42.9289 37.2484 43.1695C37.2484 43.41 37.1524 43.6408 36.9816 43.8109C36.8107 43.981 36.5789 44.0765 36.3373 44.0765H33.6038C33.3621 44.0765 33.1304 43.981 32.9595 43.8109C32.7886 43.6408 32.6926 43.41 32.6926 43.1695C32.6926 42.9289 32.7886 42.6982 32.9595 42.5281C33.1304 42.358 33.3621 42.2625 33.6038 42.2625ZM32.6926 39.5414C32.6926 39.3008 32.7886 39.0701 32.9595 38.9C33.1304 38.7299 33.3621 38.6344 33.6038 38.6344H36.3373C36.5789 38.6344 36.8107 38.7299 36.9816 38.9C37.1524 39.0701 37.2484 39.3008 37.2484 39.5414C37.2484 39.782 37.1524 40.0127 36.9816 40.1828C36.8107 40.3529 36.5789 40.4484 36.3373 40.4484H33.6038C33.3621 40.4484 33.1304 40.3529 32.9595 40.1828C32.7886 40.0127 32.6926 39.782 32.6926 39.5414ZM33.6038 45.8906H36.3373C36.5789 45.8906 36.8107 45.9861 36.9816 46.1562C37.1524 46.3263 37.2484 46.557 37.2484 46.7976C37.2484 47.0381 37.1524 47.2688 36.9816 47.4389C36.8107 47.609 36.5789 47.7046 36.3373 47.7046H33.6038C33.3621 47.7046 33.1304 47.609 32.9595 47.4389C32.7886 47.2688 32.6926 47.0381 32.6926 46.7976C32.6926 46.557 32.7886 46.3263 32.9595 46.1562C33.1304 45.9861 33.3621 45.8906 33.6038 45.8906ZM34.5149 49.5186H37.2484C37.4901 49.5186 37.7218 49.6142 37.8927 49.7843C38.0636 49.9544 38.1596 50.1851 38.1596 50.4257C38.1596 50.6662 38.0636 50.8969 37.8927 51.067C37.7218 51.2371 37.4901 51.3327 37.2484 51.3327H34.5149C34.2733 51.3327 34.0415 51.2371 33.8707 51.067C33.6998 50.8969 33.6038 50.6662 33.6038 50.4257C33.6038 50.1851 33.6998 49.9544 33.8707 49.7843C34.0415 49.6142 34.2733 49.5186 34.5149 49.5186ZM16.4193 27.2875C17.4961 26.9293 18.497 26.3757 19.3714 25.6549L21.7222 28.6571H19.9364C19.7676 28.6552 19.6017 28.7011 19.4582 28.7894C19.3146 28.8777 19.1992 29.0049 19.1254 29.156L18.1505 31.088L16.4193 27.2875ZM8.96598 31.088L7.99104 29.156C7.91728 29.0049 7.80188 28.8777 7.6583 28.7894C7.51472 28.7011 7.34888 28.6552 7.1801 28.6571H5.39423L7.74502 25.6549C8.61948 26.3757 9.62039 26.9293 10.6972 27.2875L8.96598 31.088ZM6.26894 18.6799C6.26894 17.2448 6.69645 15.8419 7.49741 14.6486C8.29837 13.4553 9.4368 12.5253 10.7687 11.9761C12.1007 11.4269 13.5663 11.2832 14.9803 11.5632C16.3943 11.8431 17.6931 12.5342 18.7125 13.549C19.732 14.5638 20.4262 15.8567 20.7075 17.2643C20.9887 18.6719 20.8444 20.1308 20.2927 21.4567C19.741 22.7826 18.8067 23.9159 17.6079 24.7132C16.4092 25.5105 14.9999 25.9361 13.5582 25.9361C11.6258 25.9334 9.77329 25.1681 8.40686 23.8079C7.04042 22.4477 6.27159 20.6036 6.26894 18.6799ZM9.00243 54.9608C8.27813 54.9586 7.58411 54.6712 7.07195 54.1614C6.55979 53.6516 6.27111 52.9607 6.26894 52.2397V49.5186H31.9455C31.7955 49.9284 31.7474 50.3682 31.8052 50.8006C31.863 51.2329 32.0251 51.6448 32.2775 52.0013C32.5299 52.3577 32.8653 52.6481 33.2549 52.8476C33.6445 53.047 34.0768 53.1497 34.5149 53.1467H40.9842C41.1226 53.8083 41.4126 54.4291 41.8316 54.9608H9.00243ZM45.4489 54.9608C44.8852 54.9579 44.3362 54.7822 43.8764 54.4576C43.4167 54.133 43.0685 53.6753 42.8794 53.1467H47.2712C47.5128 53.1449 47.7444 53.0508 47.9181 52.8837L48.1368 52.6569C48.0401 53.2977 47.7157 53.8827 47.2224 54.3055C46.7291 54.7283 46.0998 54.9608 45.4489 54.9608ZM50.0047 49.5186H49.0935C48.852 49.5204 48.6203 49.6146 48.4466 49.7817L46.8976 51.3327H39.8179C40.0309 50.7532 40.0367 50.1182 39.8342 49.535C39.6317 48.9517 39.2333 48.4558 38.7063 48.1309C38.9433 47.726 39.069 47.2662 39.0708 46.7976C39.069 46.1259 38.8156 45.479 38.3601 44.9835C38.8171 44.489 39.0708 43.8415 39.0708 43.1695C39.0708 42.4975 38.8171 41.85 38.3601 41.3554C38.8156 40.8599 39.069 40.2131 39.0708 39.5414C39.0683 39.232 39.0128 38.9252 38.9067 38.6344H39.9819V42.0266C39.985 42.8085 40.1903 43.5764 40.5781 44.2564C40.966 44.9363 41.5231 45.5054 42.196 45.9087L44.9842 47.5776L45.9136 46.0175L43.1345 44.3577C42.7308 44.1151 42.3965 43.7733 42.1636 43.3651C41.9306 42.957 41.8069 42.4961 41.8042 42.0266V35.1514L42.1414 34.1537C42.2412 33.8556 42.4386 33.5994 42.7018 33.4261C42.9651 33.2527 43.2791 33.1721 43.5937 33.1971C43.9084 33.2222 44.2055 33.3515 44.4377 33.5643C44.67 33.7771 44.8239 34.0613 44.8749 34.3714L45.458 37.8725C45.4941 38.0594 45.5825 38.2323 45.7131 38.3713L47.5354 40.1854C47.7092 40.3525 47.9408 40.4466 48.1824 40.4484H50.0047V49.5186Z" fill="#00A769"/>
<path d="M13.5583 24.1216C14.6395 24.1216 15.6965 23.8024 16.5956 23.2044C17.4946 22.6064 18.1953 21.7565 18.6091 20.762C19.0229 19.7676 19.1311 18.6734 18.9202 17.6177C18.7093 16.5621 18.1886 15.5924 17.424 14.8313C16.6594 14.0702 15.6853 13.5519 14.6248 13.3419C13.5643 13.1319 12.4651 13.2397 11.4662 13.6516C10.4672 14.0635 9.61338 14.761 9.01266 15.656C8.41194 16.5509 8.09131 17.6031 8.09131 18.6794C8.09276 20.1223 8.6692 21.5057 9.69414 22.526C10.7191 23.5463 12.1088 24.1201 13.5583 24.1216ZM13.5583 15.0514C14.2791 15.0514 14.9838 15.2641 15.5831 15.6628C16.1825 16.0615 16.6496 16.6281 16.9255 17.291C17.2013 17.954 17.2735 18.6835 17.1329 19.3872C16.9923 20.091 16.6451 20.7375 16.1354 21.2449C15.6257 21.7523 14.9763 22.0978 14.2693 22.2378C13.5623 22.3778 12.8295 22.306 12.1635 22.0314C11.4976 21.7568 10.9283 21.2917 10.5279 20.6951C10.1274 20.0985 9.91363 19.397 9.91363 18.6794C9.91363 17.7172 10.2976 16.7944 10.9811 16.114C11.6646 15.4336 12.5917 15.0514 13.5583 15.0514Z" fill="#6BDE1E"/>
<path d="M26.3145 12.3311H45.4488V14.1451H26.3145V12.3311Z" fill="#00BC58"/>
<path d="M26.3145 16.8662H45.4488V18.6803H26.3145V16.8662Z" fill="#00BC58"/>
<path d="M26.3145 21.4014H45.4488V23.2154H26.3145V21.4014Z" fill="#00BC58"/>
<path d="M26.3145 25.9365H45.4488V27.7506H26.3145V25.9365Z" fill="#00BC58"/>
</svg>
