<svg width="59" height="61" viewBox="0 0 59 61" fill="none" xmlns="http://www.w3.org/2000/svg">
<g clip-path="url(#clip0_177_1327)">
<path d="M51.745 33.351L53.9371 31.173C56.9211 28.2084 58.5643 24.2664 58.5643 20.0733C58.5643 15.8803 56.9211 11.9383 53.9371 8.97354C47.7797 2.85591 37.761 2.85591 31.6028 8.97445L29.4214 11.1446L27.2106 8.97286C21.0533 2.85534 11.0345 2.85546 4.87722 8.97286C1.89328 11.9376 0.25 15.8795 0.25 20.0727C0.25 24.2607 1.88929 28.1981 4.86629 31.1616L7.03029 33.3883L5.09134 35.3147C4.10273 36.2969 3.55843 37.6031 3.55843 38.9927C3.55843 40.3821 4.10285 41.6883 5.09146 42.6705C6.04886 43.6218 7.2877 44.1261 8.54407 44.1839C8.60387 45.482 9.14089 46.6937 10.0715 47.6185C11.0287 48.5695 12.2678 49.0739 13.524 49.1317C13.5838 50.4298 14.1207 51.6415 15.0515 52.5663C16.0088 53.5172 17.2478 54.0216 18.504 54.0794C18.5637 55.3776 19.1007 56.5893 20.0314 57.5141C21.0507 58.5265 22.3894 59.0329 23.7282 59.0329C25.0671 59.0329 26.4058 58.5265 27.4249 57.5141L29.4031 55.5487L31.3895 57.5133C32.4089 58.5261 33.7474 59.0323 35.0863 59.0323C36.4249 59.0323 37.764 58.5258 38.7831 57.5134C39.7138 56.5887 40.2508 55.377 40.3106 54.0788C41.5668 54.021 42.8059 53.5166 43.7631 52.5656C44.6937 51.6409 45.2307 50.4291 45.2905 49.131C46.5468 49.0732 47.7859 48.5688 48.743 47.6178C49.6737 46.6931 50.2107 45.4814 50.2705 44.1832C51.5267 44.1254 52.7659 43.621 53.7231 42.6699C54.7117 41.6877 55.256 40.3814 55.256 38.992C55.256 37.6024 54.7116 36.2962 53.7223 35.3132L51.745 33.351ZM34.0172 11.3817C38.8438 6.58638 46.6971 6.58649 51.5237 11.3817C53.8605 13.7035 55.1475 16.7903 55.1475 20.0733C55.1475 23.3564 53.8605 26.4431 51.5237 28.7649L49.3271 30.9473L35.5666 17.2854C35.2331 16.9543 34.7968 16.7888 34.3602 16.7888C33.923 16.7888 33.4858 16.9549 33.1523 17.287L27.2442 23.1693C26.5448 23.8655 25.4068 23.8655 24.7075 23.1693C24.3687 22.832 24.1821 22.3835 24.1821 21.9064C24.1821 21.4294 24.3687 20.9809 24.7071 20.6441L34.0172 11.3817ZM7.50501 40.2625C7.16332 39.923 6.97528 39.472 6.97528 38.9926C6.97528 38.5132 7.16332 38.0621 7.5049 37.7228L9.85751 35.3854C10.2113 35.034 10.6761 34.8581 11.1408 34.8581C11.6056 34.8581 12.0703 35.034 12.424 35.3854C12.7656 35.7248 12.9538 36.1758 12.9538 36.6553C12.9538 37.1346 12.7656 37.5858 12.424 37.925L10.0714 40.2624C9.36389 40.9656 8.21264 40.9653 7.50501 40.2625ZM12.485 45.2102C12.1434 44.8709 11.9552 44.4198 11.9552 43.9404C11.9552 43.461 12.1434 43.0099 12.485 42.6706L14.8376 40.3333C15.1913 39.9818 15.6561 39.8059 16.1208 39.8059C16.5856 39.8059 17.0503 39.9818 17.4041 40.3333C17.7457 40.6726 17.9338 41.1236 17.9338 41.6031C17.9338 42.0824 17.7457 42.5336 17.4041 42.8728L15.0515 45.2102C14.3438 45.9132 13.1926 45.9131 12.485 45.2102ZM17.4649 50.158C17.1233 49.8187 16.9352 49.3676 16.9352 48.8883C16.9352 48.4088 17.1233 47.9577 17.4649 47.6185L19.8175 45.2811C20.1714 44.9295 20.6361 44.7537 21.1008 44.7537C21.5655 44.7537 22.0303 44.9296 22.384 45.2809C22.7257 45.6204 22.9138 46.0714 22.9138 46.5508C22.9138 47.0302 22.7257 47.4814 22.3842 47.8206L20.0315 50.158C19.3239 50.8609 18.1725 50.8612 17.4649 50.158ZM27.364 52.7684L25.0114 55.1058C24.3039 55.809 23.1525 55.8089 22.4449 55.1058C22.1033 54.7665 21.9151 54.3154 21.9151 53.836C21.9151 53.3565 22.1033 52.9055 22.4449 52.5663L24.7975 50.2289V50.2287C25.1512 49.8773 25.6159 49.7015 26.0806 49.7015C26.5453 49.7015 27.0101 49.8773 27.3639 50.2289C27.7055 50.5682 27.8936 51.0192 27.8936 51.4987C27.8937 51.9781 27.7056 52.4291 27.364 52.7684ZM51.3093 40.2618C50.6019 40.9648 49.4506 40.9647 48.7425 40.2614L45.0388 36.5841C44.3707 35.9207 43.2891 35.9221 42.6228 36.5874C41.9565 37.2526 41.9581 38.3295 42.6262 38.9929L46.3295 42.6699C46.6711 43.0092 46.8592 43.4602 46.8592 43.9396C46.8592 44.419 46.6711 44.8702 46.3295 45.2094C45.622 45.9125 44.4707 45.9125 43.7626 45.2091L40.059 41.5318C39.3909 40.8684 38.3092 40.8698 37.6429 41.5351C36.9766 42.2002 36.9782 43.2772 37.6463 43.9406L41.3496 47.6175C41.6912 47.9569 41.8794 48.4079 41.8794 48.8874C41.8794 49.3667 41.6912 49.8179 41.3496 50.1571C40.6421 50.8601 39.4908 50.86 38.7828 50.1567L35.0791 46.4795C34.411 45.8161 33.3294 45.8174 32.6631 46.4827C31.9968 47.1479 31.9984 48.2249 32.6665 48.8883L36.3698 52.5652C36.7114 52.9046 36.8995 53.3556 36.8995 53.8349C36.8995 54.3144 36.7114 54.7656 36.3698 55.1048C35.6622 55.8078 34.511 55.8078 33.8006 55.1022L31.2067 52.5375C31.2754 52.1991 31.3106 51.8516 31.3106 51.4987C31.3106 50.1091 30.7662 48.8029 29.7776 47.8206C28.8203 46.8696 27.5812 46.3652 26.3249 46.3074C26.2651 45.0093 25.7282 43.7975 24.7976 42.8729C23.8404 41.9218 22.6012 41.4174 21.345 41.3594C21.2852 40.0614 20.7482 38.8496 19.8175 37.9249C18.8604 36.9739 17.6213 36.4695 16.365 36.4116C16.3052 35.1135 15.7683 33.9017 14.8376 32.9771C13.5335 31.6814 11.7059 31.2146 10.0247 31.577L7.31184 28.7854C7.30489 28.7782 7.29783 28.7712 7.29077 28.7641C4.95376 26.4423 3.66686 23.3556 3.66686 20.0727C3.66686 16.7897 4.95387 13.7029 7.29077 11.3811C12.1173 6.5857 19.9706 6.5857 24.804 11.3879L27.0044 13.5495L22.2915 18.2383C21.3073 19.2181 20.7653 20.521 20.7653 21.9067C20.7653 23.2925 21.3073 24.5953 22.2915 25.5751C24.3231 27.5979 27.6287 27.5979 29.6602 25.5751L34.3621 20.8939L51.3094 37.7222C51.6511 38.0616 51.8392 38.5126 51.8392 38.992C51.8391 39.4714 51.6509 39.9224 51.3093 40.2618Z" fill="#DCB900"/>
</g>
<defs>
<clipPath id="clip0_177_1327">
<rect width="58.5996" height="59.6154" fill="white" transform="translate(0.25 0.539062)"/>
</clipPath>
</defs>
</svg>
