<svg width="71" height="71" viewBox="0 0 71 71" fill="none" xmlns="http://www.w3.org/2000/svg">
<g clip-path="url(#clip0_281_1238)">
<path d="M47.9048 20.8926C47.9048 14.1078 42.3597 8.58789 35.544 8.58789C28.7282 8.58789 23.1831 14.1078 23.1831 20.8926C23.1831 27.6774 28.7282 33.1973 35.544 33.1973C42.3597 33.1973 47.9048 27.6774 47.9048 20.8926ZM25.93 20.8926C25.93 15.6155 30.2428 11.3223 35.544 11.3223C40.8451 11.3223 45.1579 15.6155 45.1579 20.8926C45.1579 26.1696 40.8451 30.4629 35.544 30.4629C30.2428 30.4629 25.93 26.1696 25.93 20.8926Z" fill="#C90000"/>
<path d="M42.0089 15.8241C41.4724 15.2904 40.603 15.2904 40.0664 15.8241L32.7971 23.0604L31.0214 21.2928C30.485 20.759 29.6156 20.759 29.079 21.2928C28.5427 21.8266 28.5427 22.6923 29.079 23.2264L31.8259 25.9607C32.0942 26.2276 32.4455 26.3612 32.7971 26.3612C33.1487 26.3612 33.5001 26.2276 33.7683 25.9607L42.0089 17.7576C42.5453 17.2237 42.5453 16.358 42.0089 15.8241Z" fill="#C90000"/>
<path d="M43.7846 70.3848C44.5431 70.3848 45.158 69.7727 45.158 69.0176C45.158 68.2625 44.5431 67.6504 43.7846 67.6504C43.026 67.6504 42.4111 68.2625 42.4111 69.0176C42.4111 69.7727 43.026 70.3848 43.7846 70.3848Z" fill="#C90000"/>
<path d="M49.965 67.6504C49.2066 67.6504 48.5916 68.2626 48.5916 69.0176C48.5916 69.7725 49.2066 70.3848 49.965 70.3848H57.5189C57.9949 70.3848 58.437 70.1394 58.6872 69.7363C58.9373 69.3334 58.9601 68.83 58.7474 68.4062L50.5068 51.9999C50.274 51.5367 49.7985 51.2441 49.2783 51.2441H39.2153C40.9734 47.7712 43.5212 44.8307 46.1985 41.7464C51.0887 36.1129 56.1454 30.2878 56.1454 20.8926C56.1454 9.58457 46.9036 0.384766 35.544 0.384766C24.1844 0.384766 14.9426 9.58457 14.9426 20.8926C14.9426 30.2878 19.9993 36.1129 24.8895 41.7464C27.5667 44.8305 30.1143 47.7708 31.8726 51.2441H21.8097C21.2895 51.2441 20.814 51.5367 20.5814 51.9999L12.3408 68.4062C12.1279 68.83 12.1507 69.3333 12.4009 69.7363C12.651 70.1394 13.0931 70.3848 13.5692 70.3848H37.6042C38.3626 70.3848 38.9776 69.7725 38.9776 69.0176C38.9776 68.2626 38.3626 67.6504 37.6042 67.6504H31.4237V62.1816H52.5497L55.2965 67.6504H49.965ZM38.0457 53.9785H42.4112V59.4473H36.9595C37.0746 57.5469 37.4328 55.7411 38.0457 53.9785ZM17.6895 20.8926C17.6895 11.0922 25.6989 3.11914 35.544 3.11914C45.3892 3.11914 53.3986 11.0922 53.3986 20.8926C53.3986 29.2699 48.8918 34.4618 44.1201 39.9586C40.6496 43.9566 37.3631 47.7873 35.544 52.817C33.724 47.7854 30.4288 43.9457 26.9679 39.9586C22.1962 34.4618 17.6895 29.2699 17.6895 20.8926ZM22.6587 53.9785H33.0423C33.6551 55.7407 34.0135 57.5466 34.1286 59.4473H19.9118L22.6587 53.9785ZM28.6769 67.6504H15.7915L18.5384 62.1816H28.6769V67.6504ZM45.158 59.4473V53.9785H48.4294L51.1762 59.4473H45.158Z" fill="#C90000"/>
</g>
<defs>
<clipPath id="clip0_281_1238">
<rect width="70.3195" height="70" fill="white" transform="translate(0.384277 0.384766)"/>
</clipPath>
</defs>
</svg>
