<svg width="82" height="81" viewBox="0 0 82 81" fill="none" xmlns="http://www.w3.org/2000/svg">
<path d="M41.1064 12.6855L41.1066 12.6854C41.1095 12.6897 41.1124 12.6941 41.1155 12.6987C41.1123 12.6943 41.1093 12.6899 41.1064 12.6855ZM41.4318 13.2611C41.4539 13.2358 41.4752 13.2112 41.4956 13.1875C43.1761 15.1699 49.8209 21.3373 65.5797 21.4544V39.8702C65.5797 49.0578 62.2495 54.8356 58.0246 58.7768C53.6887 62.8216 48.3043 65.0427 43.9243 66.826L43.9154 66.8296L43.9065 66.8333L41.5159 67.8281L39.1253 66.8333L39.1253 66.8333L39.1124 66.828C34.7256 65.0311 29.3425 62.8161 25.0061 58.7758C20.7824 54.8405 17.4521 49.0689 17.4521 39.8702V21.4544C26.2587 21.3883 32.2396 19.4137 36.1048 17.3182C38.0635 16.2563 39.456 15.1757 40.3826 14.3262C40.8454 13.9019 41.1908 13.5364 41.4318 13.2611ZM41.4595 12.4519L41.5124 12.4169L41.4564 12.454C41.4568 12.4543 41.4573 12.4547 41.4578 12.455L41.4595 12.4519ZM41.5125 12.3556L41.5125 12.3735L41.5125 12.3556Z" stroke="#AA5200" stroke-width="5"/>
<path d="M37.0588 36.9402C36.798 36.9402 36.5484 36.8371 36.3647 36.6545L36.0172 37.0039L36.3647 36.6545C36.1812 36.4719 36.0786 36.225 36.0786 35.968V31.5516C36.0786 30.1234 36.6491 28.7531 37.6654 27.7423C38.6818 26.7315 40.0609 26.1631 41.4994 26.1631C42.938 26.1631 44.3171 26.7315 45.3335 27.7423C46.3498 28.7531 46.9203 30.1234 46.9203 31.5516C46.9203 31.8086 46.8177 32.0555 46.6342 32.2381C46.4505 32.4207 46.2009 32.5238 45.9401 32.5238C45.6792 32.5238 45.4296 32.4207 45.246 32.2381C45.0625 32.0555 44.9599 31.8086 44.9599 31.5516C44.9599 30.6373 44.5946 29.7609 43.9454 29.1152C43.2962 28.4696 42.4163 28.1074 41.4994 28.1074C40.5826 28.1074 39.7027 28.4696 39.0535 29.1152C38.4043 29.7609 38.039 30.6373 38.039 31.5516V35.968C38.039 36.225 37.9364 36.4719 37.7529 36.6545C37.5693 36.8371 37.3197 36.9402 37.0588 36.9402Z" fill="#AA5200" stroke="#AA5200"/>
<path d="M35.5783 34.9951H47.42C49.5989 34.9951 51.3606 36.7511 51.3606 38.9115V50.6886C51.3606 52.849 49.5989 54.605 47.42 54.605H35.5783C33.3994 54.605 31.6377 52.849 31.6377 50.6886V38.9115C31.6377 36.7511 33.3994 34.9951 35.5783 34.9951Z" fill="#AA5200" stroke="#AA5200"/>
<path d="M44.4594 43.3292C44.4625 42.8116 44.3284 42.3024 44.0706 41.8528C43.8127 41.4032 43.4403 41.0291 42.9908 40.7683C42.5413 40.5075 42.0306 40.3692 41.5101 40.3672C40.9897 40.3653 40.478 40.4998 40.0265 40.7572C39.5751 41.0146 39.1998 41.3859 38.9386 41.8335C38.6773 42.2812 38.5394 42.7894 38.5386 43.307C38.5378 43.8246 38.6742 44.3332 38.9341 44.7816C39.1939 45.2301 39.568 45.6024 40.0187 45.8612V47.7456C40.0187 48.136 40.1747 48.5105 40.4523 48.7865C40.7299 49.0626 41.1064 49.2177 41.4989 49.2177C41.8915 49.2177 42.268 49.0626 42.5456 48.7865C42.8232 48.5105 42.9791 48.136 42.9791 47.7456V45.8612C43.4266 45.6043 43.7986 45.2355 44.0583 44.7912C44.318 44.347 44.4562 43.843 44.4594 43.3292Z" fill="white"/>
</svg>
