<svg width="82" height="81" viewBox="0 0 82 81" fill="none" xmlns="http://www.w3.org/2000/svg">
<path d="M73.8672 19.9473H61.1415L53.525 12.2973C53.525 12.2973 53.4873 12.2598 53.4684 12.2598L53.4307 12.2223C52.2995 11.0973 50.7724 10.3848 49.038 10.3848H33.2016C31.354 10.3848 29.7138 11.1723 28.5638 12.4285V12.4473L21.1169 19.9473H8.10848C4.60185 19.9473 1.77393 22.6848 1.77393 26.1723V64.066C1.77393 67.5535 4.60185 70.3848 8.10848 70.3848H73.8672C77.3549 70.3848 80.2017 67.5535 80.2017 64.066V26.1723C80.2017 22.6848 77.3549 19.9473 73.8672 19.9473ZM40.9878 60.916C31.3917 60.916 23.5678 53.116 23.5678 43.5535C23.5678 33.9723 31.3917 26.191 40.9878 26.191C50.6028 26.191 58.4078 33.9723 58.4078 43.5535C58.4078 53.116 50.6028 60.916 40.9878 60.916ZM72.6794 29.9785C71.2278 29.9785 70.04 28.7973 70.04 27.3348C70.04 25.8723 71.2278 24.691 72.6794 24.691C74.1311 24.691 75.3188 25.8723 75.3188 27.3348C75.3188 28.7973 74.1311 29.9785 72.6794 29.9785Z" fill="#AA5200"/>
<path d="M30.7584 54.1735C29.352 52.8226 28.2303 51.2067 27.4586 49.4201C26.6869 47.6334 26.2807 45.7118 26.2637 43.7674C26.2468 41.823 26.6193 39.8947 27.3597 38.095C28.1 36.2953 29.1933 34.6602 30.5759 33.2852C31.9584 31.9103 33.6024 30.8229 35.4119 30.0866C37.2215 29.3503 39.1604 28.9798 41.1155 28.9966C43.0706 29.0135 45.0027 29.4175 46.7992 30.185C48.5956 30.9525 50.2204 32.0681 51.5786 33.4668C54.2608 36.2287 55.7449 39.9278 55.7114 43.7674C55.6778 47.607 54.1293 51.28 51.3993 53.9951C48.6693 56.7102 44.9762 58.2503 41.1155 58.2837C37.2548 58.317 33.5354 56.841 30.7584 54.1735ZM39.6961 32.745V45.2845H42.6409V32.745H39.6961ZM39.6961 48.2133V51.1421H42.6409V48.2133H39.6961Z" fill="#AA5200"/>
</svg>
