<svg width="81" height="81" viewBox="0 0 81 81" fill="none" xmlns="http://www.w3.org/2000/svg">
<rect x="21.2139" y="11.3848" width="33.7486" height="54.2549" rx="6" stroke="#AA5200" stroke-width="4"/>
<path d="M38.5706 25.8213L42.7169 13.4541H36.019L34.4243 25.8213L41.4411 36.8144L38.5706 56.3958L46.5442 36.8144L38.5706 25.8213Z" fill="#AA5200"/>
<path d="M52.2185 47.6881L52.2191 47.6874C52.3875 47.4917 52.5962 47.3352 52.8303 47.228M52.2185 47.6881L52.8303 47.228M52.2185 47.6881C51.4867 48.5393 49.9241 50.4397 48.5376 52.686C47.1841 54.8789 45.8535 57.6268 45.8535 60.12C45.8535 62.363 46.569 64.314 47.9687 65.7062C49.3678 67.0976 51.326 67.807 53.5758 67.807C55.8257 67.807 57.7839 67.0976 59.1829 65.7062C60.5827 64.314 61.2982 62.363 61.2982 60.12C61.2982 57.6268 59.9676 54.8789 58.6141 52.686C57.2277 50.4397 55.6652 48.5394 54.9338 47.6882L54.933 47.6874M52.2185 47.6881L54.933 47.6874M52.8303 47.228C53.0645 47.1208 53.3188 47.0654 53.5761 47.0654C53.8333 47.0654 54.0877 47.1208 54.3218 47.228C54.556 47.3352 54.7646 47.4917 54.933 47.6874M52.8303 47.228L54.933 47.6874" fill="#AA5200" stroke="white" stroke-width="2.5" stroke-miterlimit="10"/>
<path d="M57.5311 60.4775C57.5311 61.3311 57.1901 62.1498 56.5832 62.7534C55.9763 63.357 55.1532 63.696 54.2949 63.696" stroke="white" stroke-width="2" stroke-linecap="round" stroke-linejoin="round"/>
</svg>
