<svg width="81" height="81" viewBox="0 0 81 81" fill="none" xmlns="http://www.w3.org/2000/svg">
<path d="M5.13721 23.3223C5.13721 17.2817 10.0341 12.3848 16.0747 12.3848H55.4497C61.4903 12.3848 66.3872 17.2817 66.3872 23.3223V26.9681L71.4915 26.978C72.1552 26.978 72.7782 27.1556 73.3141 27.4658C74.404 28.0962 75.1372 29.2745 75.1372 30.6239V37.9155C75.1372 39.2648 74.404 40.4434 73.3141 41.0734C72.7782 41.384 72.1552 41.5612 71.4915 41.5612L66.3872 41.5516V45.1973C66.3872 51.2378 61.4903 56.1348 55.4497 56.1348H45.5587L32.6681 30.3497C29.4413 23.8951 20.231 23.8968 17.0067 30.3528L6.74244 50.9044C5.7242 49.2428 5.13721 47.2885 5.13721 45.1973V23.3223ZM20.9001 32.3066L5.60437 62.9248C4.15012 65.8359 6.26727 69.2598 9.52166 69.2598H40.1278C43.383 69.2598 45.5001 65.8346 44.0441 62.9235L28.7339 32.3051C27.1198 29.0773 22.5129 29.0782 20.9001 32.3066ZM27.005 40.8008V53.9359C27.005 55.1451 26.0248 56.1251 24.8156 56.1251C23.6064 56.1251 22.6262 55.1451 22.6262 53.9359V40.8008C22.6262 39.5916 23.6064 38.6116 24.8156 38.6116C26.0248 38.6116 27.005 39.5916 27.005 40.8008ZM24.8156 64.8817C23.6064 64.8817 22.6262 63.9017 22.6262 62.6929C22.6262 61.4836 23.6064 60.5036 24.8156 60.5036C26.0248 60.5036 27.005 61.4836 27.005 62.6929C27.005 63.9017 26.0248 64.8817 24.8156 64.8817Z" fill="#AA5200"/>
</svg>
