<svg width="82" height="81" viewBox="0 0 82 81" fill="none" xmlns="http://www.w3.org/2000/svg">
<path fill-rule="evenodd" clip-rule="evenodd" d="M23.3108 15.7277C23.5301 15.5097 23.8303 15.3848 24.1462 15.3848H49.8678C50.1836 15.3848 50.4839 15.5097 50.7031 15.7277C50.9219 15.9453 51.0423 16.2375 51.0423 16.5392V32.9843C51.0423 34.365 52.1615 35.4843 53.5423 35.4843C54.923 35.4843 56.0423 34.365 56.0423 32.9843V16.5392C56.0423 14.9025 55.3884 13.3357 54.2289 12.1825C53.07 11.0299 51.5009 10.3848 49.8678 10.3848H24.1462C22.513 10.3848 20.944 11.0299 19.785 12.1825C18.6255 13.3357 17.9717 14.9025 17.9717 16.5392V64.0473C17.9717 65.684 18.6255 67.2508 19.785 68.404C20.944 69.5566 22.513 70.2017 24.1462 70.2017H35.1697C36.5504 70.2017 37.6697 69.0825 37.6697 67.7017C37.6697 66.321 36.5504 65.2017 35.1697 65.2017H24.1462C23.8303 65.2017 23.5301 65.0768 23.3108 64.8588C23.0921 64.6412 22.9717 64.349 22.9717 64.0473V16.5392C22.9717 16.2375 23.0921 15.9453 23.3108 15.7277ZM51.868 43.9474C51.868 42.8429 50.9725 41.9474 49.868 41.9474C48.7634 41.9474 47.868 42.8429 47.868 43.9474V53.0836C47.868 54.1882 48.7634 55.0836 49.868 55.0836C50.9725 55.0836 51.868 54.1882 51.868 53.0836V43.9474ZM49.868 58.3924C50.9725 58.3924 51.868 59.2878 51.868 60.3924V62.2196C51.868 63.3242 50.9725 64.2196 49.868 64.2196C48.7634 64.2196 47.868 63.3242 47.868 62.2196V60.3924C47.868 59.2878 48.7634 58.3924 49.868 58.3924ZM32.4532 17.3104C31.2105 17.3104 30.2032 18.3178 30.2032 19.5604C30.2032 20.8031 31.2105 21.8104 32.4532 21.8104H40.746C41.9886 21.8104 42.996 20.8031 42.996 19.5604C42.996 18.3178 41.9886 17.3104 40.746 17.3104H32.4532Z" fill="#AA5200"/>
<path opacity="0.4" d="M49.4358 67.7015C57.5533 67.7015 64.1339 61.1569 64.1339 53.0837C64.1339 45.0105 57.5533 38.4658 49.4358 38.4658C41.3183 38.4658 34.7378 45.0105 34.7378 53.0837C34.7378 61.1569 41.3183 67.7015 49.4358 67.7015Z" stroke="#AA5200" stroke-width="4" stroke-linecap="round" stroke-linejoin="round"/>
</svg>
